<svg color-interpolation="sRGB" color-rendering="auto" fill="none"    fill-opacity="1" font-family="'Arial'" font-size="12" font-style="normal"    font-weight="normal"   viewBox="0 0 1420 1087 "  image-rendering="auto"     shape-rendering="auto" stroke="black" stroke-dasharray="none"     stroke-dashoffset="0" stroke-linecap="square" stroke-linejoin="bevel"    stroke-miterlimit="10" stroke-opacity="1" stroke-width="1"     text-rendering="auto" >
<polygon stroke="none" fill="#ff0000" fill-opacity="1.0" points=" 875.3624826170313 918.6738329222534 875.3624826170313 918.6738329222534 643.8659489034541 493.7714841793352" />
<polygon stroke="none" fill="#ff0000" fill-opacity="1.0" points=" 643.8659489034541 493.7714841793352 875.3624826170313 918.6738329222534 643.8659489034541 493.7714841793352" />
<polygon stroke="none" fill="#ff0000" fill-opacity="1.0" points=" 875.3624826170313 918.6738329222534 875.3624826170313 918.6738329222534 643.8659489034541 493.7714841793352" />
<polygon stroke="none" fill="#ff0000" fill-opacity="1.0" points=" 643.8659489034541 493.7714841793352 875.3624826170313 918.6738329222534 643.8659489034541 493.7714841793352" />
<polygon stroke="none" fill="#ff0000" fill-opacity="1.0" points=" 987.559542856895 845.8951144629511 987.559542856895 845.8951144629511 875.3624826170313 918.6738329222534" />
<polygon stroke="none" fill="#ff0000" fill-opacity="1.0" points=" 875.3624826170313 918.6738329222534 987.559542856895 845.8951144629511 875.3624826170313 918.6738329222534" />
<polygon stroke="none" fill="#ff0000" fill-opacity="1.0" points=" 752.130376745244 950.8792364425651 752.130376745244 950.8792364425651 875.3624826170313 918.6738329222534" />
<polygon stroke="none" fill="#ff0000" fill-opacity="1.0" points=" 875.3624826170313 918.6738329222534 752.130376745244 950.8792364425651 875.3624826170313 918.6738329222534" />
<polygon stroke="none" fill="#7a7682" fill-opacity="1.0" points=" 875.3624826170313 918.6738329222534 875.3624826170313 918.6738329222534 643.8659489034541 493.7714841793352" />
<polygon stroke="none" fill="#7a7682" fill-opacity="1.0" points=" 643.8659489034541 493.7714841793352 875.3624826170313 918.6738329222534 643.8659489034541 493.7714841793352" />
<polygon stroke="none" fill="#7a7682" fill-opacity="1.0" points=" 643.8659489034541 493.7714841793352 643.8659489034541 493.7714841793352 875.3624826170313 918.6738329222534" />
<polygon stroke="none" fill="#7a7682" fill-opacity="1.0" points=" 875.3624826170313 918.6738329222534 643.8659489034541 493.7714841793352 875.3624826170313 918.6738329222534" />
<polygon stroke="none" fill="#7a7682" fill-opacity="1.0" points=" 987.559542856895 845.8951144629511 987.559542856895 845.8951144629511 875.3624826170313 918.6738329222534" />
<polygon stroke="none" fill="#7a7682" fill-opacity="1.0" points=" 875.3624826170313 918.6738329222534 987.559542856895 845.8951144629511 875.3624826170313 918.6738329222534" />
<polygon stroke="none" fill="#7a7682" fill-opacity="1.0" points=" 875.3624826170313 918.6738329222534 875.3624826170313 918.6738329222534 752.130376745244 950.8792364425651" />
<polygon stroke="none" fill="#7a7682" fill-opacity="1.0" points=" 752.130376745244 950.8792364425651 875.3624826170313 918.6738329222534 752.130376745244 950.8792364425651" />
<polygon stroke="none" fill="#ff0000" fill-opacity="1.0" points=" 987.559542856895 845.8951144629511 987.559542856895 845.8951144629511 1073.367922116285 735.326995132821" />
<polygon stroke="none" fill="#ff0000" fill-opacity="1.0" points=" 1073.367922116285 735.326995132821 987.559542856895 845.8951144629511 1073.367922116285 735.326995132821" />
<polygon stroke="none" fill="#7a7682" fill-opacity="1.0" points=" 643.8659489034541 493.7714841793352 643.8659489034541 493.7714841793352 987.559542856895 845.8951144629511" />
<polygon stroke="none" fill="#7a7682" fill-opacity="1.0" points=" 987.559542856895 845.8951144629511 643.8659489034541 493.7714841793352 987.559542856895 845.8951144629511" />
<polygon stroke="none" fill="#7a7682" fill-opacity="1.0" points=" 1073.367922116285 735.326995132821 1073.367922116285 735.326995132821 987.559542856895 845.8951144629511" />
<polygon stroke="none" fill="#7a7682" fill-opacity="1.0" points=" 987.559542856895 845.8951144629511 1073.367922116285 735.326995132821 987.559542856895 845.8951144629511" />
<polygon stroke="none" fill="#7a7682" fill-opacity="1.0" points=" 987.559542856895 845.8951144629511 987.559542856895 845.8951144629511 659.7653965867141 477.68743684299704" />
<polygon stroke="none" fill="#7a7682" fill-opacity="1.0" points=" 659.7653965867141 477.68743684299704 987.559542856895 845.8951144629511 659.7653965867141 477.68743684299704" />
<polygon stroke="none" fill="#ff0000" fill-opacity="1.0" points=" 630.7581168733534 944.9123292796238 630.7581168733534 944.9123292796238 752.130376745244 950.8792364425651" />
<polygon stroke="none" fill="#ff0000" fill-opacity="1.0" points=" 752.130376745244 950.8792364425651 630.7581168733534 944.9123292796238 752.130376745244 950.8792364425651" />
<polygon stroke="none" fill="#7a7682" fill-opacity="1.0" points=" 643.8659489034541 493.7714841793352 643.8659489034541 493.7714841793352 752.130376745244 950.8792364425651" />
<polygon stroke="none" fill="#7a7682" fill-opacity="1.0" points=" 752.130376745244 950.8792364425651 643.8659489034541 493.7714841793352 752.130376745244 950.8792364425651" />
<polygon stroke="none" fill="#7a7682" fill-opacity="1.0" points=" 752.130376745244 950.8792364425651 752.130376745244 950.8792364425651 630.7581168733534 944.9123292796238" />
<polygon stroke="none" fill="#7a7682" fill-opacity="1.0" points=" 630.7581168733534 944.9123292796238 752.130376745244 950.8792364425651 630.7581168733534 944.9123292796238" />
<polygon stroke="none" fill="#7a7682" fill-opacity="1.0" points=" 752.130376745244 950.8792364425651 752.130376745244 950.8792364425651 623.7736211514916 504.15303144196565" />
<polygon stroke="none" fill="#7a7682" fill-opacity="1.0" points=" 623.7736211514916 504.15303144196565 752.130376745244 950.8792364425651 623.7736211514916 504.15303144196565" />
<polygon stroke="none" fill="#ff0000" fill-opacity="1.0" points=" 1117.7190794849864 597.0401155724406 1117.7190794849864 597.0401155724406 1073.367922116285 735.326995132821" />
<polygon stroke="none" fill="#ff0000" fill-opacity="1.0" points=" 1073.367922116285 735.326995132821 1117.7190794849864 597.0401155724406 1073.367922116285 735.326995132821" />
<polygon stroke="none" fill="#7a7682" fill-opacity="1.0" points=" 1073.367922116285 735.326995132821 1073.367922116285 735.326995132821 659.7653965867141 477.68743684299704" />
<polygon stroke="none" fill="#7a7682" fill-opacity="1.0" points=" 659.7653965867141 477.68743684299704 1073.367922116285 735.326995132821 659.7653965867141 477.68743684299704" />
<polygon stroke="none" fill="#7a7682" fill-opacity="1.0" points=" 1117.7190794849864 597.0401155724406 1117.7190794849864 597.0401155724406 1073.367922116285 735.326995132821" />
<polygon stroke="none" fill="#7a7682" fill-opacity="1.0" points=" 1073.367922116285 735.326995132821 1117.7190794849864 597.0401155724406 1073.367922116285 735.326995132821" />
<polygon stroke="none" fill="#ff0000" fill-opacity="1.0" points=" 630.7581168733534 944.9123292796238 630.7581168733534 944.9123292796238 520.8354603092602 905.9507712958257" />
<polygon stroke="none" fill="#ff0000" fill-opacity="1.0" points=" 520.8354603092602 905.9507712958257 630.7581168733534 944.9123292796238 520.8354603092602 905.9507712958257" />
<polygon stroke="none" fill="#7a7682" fill-opacity="1.0" points=" 630.7581168733534 944.9123292796238 630.7581168733534 944.9123292796238 520.8354603092602 905.9507712958257" />
<polygon stroke="none" fill="#7a7682" fill-opacity="1.0" points=" 520.8354603092602 905.9507712958257 630.7581168733534 944.9123292796238 520.8354603092602 905.9507712958257" />
<polygon stroke="none" fill="#7a7682" fill-opacity="1.0" points=" 630.7581168733534 944.9123292796238 630.7581168733534 944.9123292796238 601.453238981944 507.8168781053566" />
<polygon stroke="none" fill="#7a7682" fill-opacity="1.0" points=" 601.453238981944 507.8168781053566 630.7581168733534 944.9123292796238 601.453238981944 507.8168781053566" />
<polygon stroke="none" fill="#7a7682" fill-opacity="1.0" points=" 630.7581168733534 944.9123292796238 630.7581168733534 944.9123292796238 623.7736211514916 504.15303144196565" />
<polygon stroke="none" fill="#7a7682" fill-opacity="1.0" points=" 623.7736211514916 504.15303144196565 630.7581168733534 944.9123292796238 623.7736211514916 504.15303144196565" />
<polygon stroke="none" fill="#ff0000" fill-opacity="1.0" points=" 429.0117910729805 840.1754980367593 429.0117910729805 840.1754980367593 520.8354603092602 905.9507712958257" />
<polygon stroke="none" fill="#ff0000" fill-opacity="1.0" points=" 520.8354603092602 905.9507712958257 429.0117910729805 840.1754980367593 520.8354603092602 905.9507712958257" />
<polygon stroke="none" fill="#7a7682" fill-opacity="1.0" points=" 520.8354603092602 905.9507712958257 520.8354603092602 905.9507712958257 429.0117910729805 840.1754980367593" />
<polygon stroke="none" fill="#7a7682" fill-opacity="1.0" points=" 429.0117910729805 840.1754980367593 520.8354603092602 905.9507712958257 429.0117910729805 840.1754980367593" />
<polygon stroke="none" fill="#7a7682" fill-opacity="1.0" points=" 520.8354603092602 905.9507712958257 520.8354603092602 905.9507712958257 601.453238981944 507.8168781053566" />
<polygon stroke="none" fill="#7a7682" fill-opacity="1.0" points=" 601.453238981944 507.8168781053566 520.8354603092602 905.9507712958257 601.453238981944 507.8168781053566" />
<polygon stroke="none" fill="#ff0000" fill-opacity="1.0" points=" 1117.7190794849864 597.0401155724406 1117.7190794849864 597.0401155724406 1110.2695110753414 448.53311972169115" />
<polygon stroke="none" fill="#ff0000" fill-opacity="1.0" points=" 1110.2695110753414 448.53311972169115 1117.7190794849864 597.0401155724406 1110.2695110753414 448.53311972169115" />
<polygon stroke="none" fill="#7a7682" fill-opacity="1.0" points=" 1110.2695110753414 448.53311972169115 1110.2695110753414 448.53311972169115 1117.7190794849864 597.0401155724406" />
<polygon stroke="none" fill="#7a7682" fill-opacity="1.0" points=" 1117.7190794849864 597.0401155724406 1110.2695110753414 448.53311972169115 1117.7190794849864 597.0401155724406" />
<polygon stroke="none" fill="#7a7682" fill-opacity="1.0" points=" 659.7653965867141 477.68743684299704 659.7653965867141 477.68743684299704 1117.7190794849864 597.0401155724406" />
<polygon stroke="none" fill="#7a7682" fill-opacity="1.0" points=" 1117.7190794849864 597.0401155724406 659.7653965867141 477.68743684299704 1117.7190794849864 597.0401155724406" />
<polygon stroke="none" fill="#7a7682" fill-opacity="1.0" points=" 669.9165958257504 457.4733373075006 669.9165958257504 457.4733373075006 1117.7190794849864 597.0401155724406" />
<polygon stroke="none" fill="#7a7682" fill-opacity="1.0" points=" 1117.7190794849864 597.0401155724406 669.9165958257504 457.4733373075006 1117.7190794849864 597.0401155724406" />
<polygon stroke="none" fill="#ff0000" fill-opacity="1.0" points=" 359.82006273154786 753.8351546843576 359.82006273154786 753.8351546843576 429.0117910729805 840.1754980367593" />
<polygon stroke="none" fill="#ff0000" fill-opacity="1.0" points=" 429.0117910729805 840.1754980367593 359.82006273154786 753.8351546843576 429.0117910729805 840.1754980367593" />
<polygon stroke="none" fill="#7a7682" fill-opacity="1.0" points=" 429.0117910729805 840.1754980367593 429.0117910729805 840.1754980367593 359.82006273154786 753.8351546843576" />
<polygon stroke="none" fill="#7a7682" fill-opacity="1.0" points=" 359.82006273154786 753.8351546843576 429.0117910729805 840.1754980367593 359.82006273154786 753.8351546843576" />
<polygon stroke="none" fill="#7a7682" fill-opacity="1.0" points=" 429.0117910729805 840.1754980367593 429.0117910729805 840.1754980367593 601.453238981944 507.8168781053566" />
<polygon stroke="none" fill="#7a7682" fill-opacity="1.0" points=" 601.453238981944 507.8168781053566 429.0117910729805 840.1754980367593 601.453238981944 507.8168781053566" />
<polygon stroke="none" fill="#7a7682" fill-opacity="1.0" points=" 429.0117910729805 840.1754980367593 429.0117910729805 840.1754980367593 579.0874992966613 504.40405748041917" />
<polygon stroke="none" fill="#7a7682" fill-opacity="1.0" points=" 579.0874992966613 504.40405748041917 429.0117910729805 840.1754980367593 579.0874992966613 504.40405748041917" />
<polygon stroke="none" fill="#ff0000" fill-opacity="1.0" points=" 1110.2695110753414 448.53311972169115 1110.2695110753414 448.53311972169115 1049.7319269394934 311.58209318777665" />
<polygon stroke="none" fill="#ff0000" fill-opacity="1.0" points=" 1049.7319269394934 311.58209318777665 1110.2695110753414 448.53311972169115 1049.7319269394934 311.58209318777665" />
<polygon stroke="none" fill="#7a7682" fill-opacity="1.0" points=" 1110.2695110753414 448.53311972169115 1110.2695110753414 448.53311972169115 669.9165958257504 457.4733373075006" />
<polygon stroke="none" fill="#7a7682" fill-opacity="1.0" points=" 669.9165958257504 457.4733373075006 1110.2695110753414 448.53311972169115 669.9165958257504 457.4733373075006" />
<polygon stroke="none" fill="#7a7682" fill-opacity="1.0" points=" 1049.7319269394934 311.58209318777665 1049.7319269394934 311.58209318777665 1110.2695110753414 448.53311972169115" />
<polygon stroke="none" fill="#7a7682" fill-opacity="1.0" points=" 1110.2695110753414 448.53311972169115 1049.7319269394934 311.58209318777665 1110.2695110753414 448.53311972169115" />
<polygon stroke="none" fill="#7a7682" fill-opacity="1.0" points=" 1110.2695110753414 448.53311972169115 1110.2695110753414 448.53311972169115 673.3255114477968 435.10571077115094" />
<polygon stroke="none" fill="#7a7682" fill-opacity="1.0" points=" 673.3255114477968 435.10571077115094 1110.2695110753414 448.53311972169115 673.3255114477968 435.10571077115094" />
<polygon stroke="none" fill="#ff0000" fill-opacity="1.0" points=" 316.48065012688807 652.9859837595756 316.48065012688807 652.9859837595756 359.82006273154786 753.8351546843576" />
<polygon stroke="none" fill="#ff0000" fill-opacity="1.0" points=" 359.82006273154786 753.8351546843576 316.48065012688807 652.9859837595756 359.82006273154786 753.8351546843576" />
<polygon stroke="none" fill="#7a7682" fill-opacity="1.0" points=" 359.82006273154786 753.8351546843576 359.82006273154786 753.8351546843576 316.48065012688807 652.9859837595756" />
<polygon stroke="none" fill="#7a7682" fill-opacity="1.0" points=" 316.48065012688807 652.9859837595756 359.82006273154786 753.8351546843576 316.48065012688807 652.9859837595756" />
<polygon stroke="none" fill="#7a7682" fill-opacity="1.0" points=" 579.0874992966613 504.40405748041917 579.0874992966613 504.40405748041917 359.82006273154786 753.8351546843576" />
<polygon stroke="none" fill="#7a7682" fill-opacity="1.0" points=" 359.82006273154786 753.8351546843576 579.0874992966613 504.40405748041917 359.82006273154786 753.8351546843576" />
<polygon stroke="none" fill="#7a7682" fill-opacity="1.0" points=" 359.82006273154786 753.8351546843576 359.82006273154786 753.8351546843576 558.86414387513 494.2470982942193" />
<polygon stroke="none" fill="#7a7682" fill-opacity="1.0" points=" 558.86414387513 494.2470982942193 359.82006273154786 753.8351546843576 558.86414387513 494.2470982942193" />
<polygon stroke="none" fill="#ff0000" fill-opacity="1.0" points=" 945.3722898188807 206.43337658515713 945.3722898188807 206.43337658515713 1049.7319269394934 311.58209318777665" />
<polygon stroke="none" fill="#ff0000" fill-opacity="1.0" points=" 1049.7319269394934 311.58209318777665 945.3722898188807 206.43337658515713 1049.7319269394934 311.58209318777665" />
<polygon stroke="none" fill="#7a7682" fill-opacity="1.0" points=" 945.3722898188807 206.43337658515713 945.3722898188807 206.43337658515713 1049.7319269394934 311.58209318777665" />
<polygon stroke="none" fill="#7a7682" fill-opacity="1.0" points=" 1049.7319269394934 311.58209318777665 945.3722898188807 206.43337658515713 1049.7319269394934 311.58209318777665" />
<polygon stroke="none" fill="#7a7682" fill-opacity="1.0" points=" 669.6568835586027 412.77251277222626 669.6568835586027 412.77251277222626 1049.7319269394934 311.58209318777665" />
<polygon stroke="none" fill="#7a7682" fill-opacity="1.0" points=" 1049.7319269394934 311.58209318777665 669.6568835586027 412.77251277222626 1049.7319269394934 311.58209318777665" />
<polygon stroke="none" fill="#7a7682" fill-opacity="1.0" points=" 1049.7319269394934 311.58209318777665 1049.7319269394934 311.58209318777665 673.3255114477968 435.10571077115094" />
<polygon stroke="none" fill="#7a7682" fill-opacity="1.0" points=" 673.3255114477968 435.10571077115094 1049.7319269394934 311.58209318777665 673.3255114477968 435.10571077115094" />
<polygon stroke="none" fill="#ff0000" fill-opacity="1.0" points=" 643.8659489034541 493.7714841793352 643.8659489034541 493.7714841793352 623.7736211514916 504.15303144196565" />
<polygon stroke="none" fill="#ff0000" fill-opacity="1.0" points=" 623.7736211514916 504.15303144196565 643.8659489034541 493.7714841793352 623.7736211514916 504.15303144196565" />
<polygon stroke="none" fill="#ff0000" fill-opacity="1.0" points=" 623.7736211514916 504.15303144196565 623.7736211514916 504.15303144196565 601.453238981944 507.8168781053566" />
<polygon stroke="none" fill="#ff0000" fill-opacity="1.0" points=" 601.453238981944 507.8168781053566 623.7736211514916 504.15303144196565 601.453238981944 507.8168781053566" />
<polygon stroke="none" fill="#7a7682" fill-opacity="1.0" points=" 623.7736211514916 504.15303144196565 623.7736211514916 504.15303144196565 643.8659489034541 493.7714841793352" />
<polygon stroke="none" fill="#7a7682" fill-opacity="1.0" points=" 643.8659489034541 493.7714841793352 623.7736211514916 504.15303144196565 643.8659489034541 493.7714841793352" />
<polygon stroke="none" fill="#7a7682" fill-opacity="1.0" points=" 601.453238981944 507.8168781053566 601.453238981944 507.8168781053566 623.7736211514916 504.15303144196565" />
<polygon stroke="none" fill="#7a7682" fill-opacity="1.0" points=" 623.7736211514916 504.15303144196565 601.453238981944 507.8168781053566 623.7736211514916 504.15303144196565" />
<polygon stroke="none" fill="#ff0000" fill-opacity="1.0" points=" 659.7653965867141 477.68743684299704 659.7653965867141 477.68743684299704 643.8659489034541 493.7714841793352" />
<polygon stroke="none" fill="#ff0000" fill-opacity="1.0" points=" 643.8659489034541 493.7714841793352 659.7653965867141 477.68743684299704 643.8659489034541 493.7714841793352" />
<polygon stroke="none" fill="#7a7682" fill-opacity="1.0" points=" 643.8659489034541 493.7714841793352 643.8659489034541 493.7714841793352 659.7653965867141 477.68743684299704" />
<polygon stroke="none" fill="#7a7682" fill-opacity="1.0" points=" 659.7653965867141 477.68743684299704 643.8659489034541 493.7714841793352 659.7653965867141 477.68743684299704" />
<polygon stroke="none" fill="#ff0000" fill-opacity="1.0" points=" 601.453238981944 507.8168781053566 601.453238981944 507.8168781053566 579.0874992966613 504.40405748041917" />
<polygon stroke="none" fill="#ff0000" fill-opacity="1.0" points=" 579.0874992966613 504.40405748041917 601.453238981944 507.8168781053566 579.0874992966613 504.40405748041917" />
<polygon stroke="none" fill="#7a7682" fill-opacity="1.0" points=" 579.0874992966613 504.40405748041917 579.0874992966613 504.40405748041917 601.453238981944 507.8168781053566" />
<polygon stroke="none" fill="#7a7682" fill-opacity="1.0" points=" 601.453238981944 507.8168781053566 579.0874992966613 504.40405748041917 601.453238981944 507.8168781053566" />
<polygon stroke="none" fill="#ff0000" fill-opacity="1.0" points=" 669.9165958257504 457.4733373075006 669.9165958257504 457.4733373075006 659.7653965867141 477.68743684299704" />
<polygon stroke="none" fill="#ff0000" fill-opacity="1.0" points=" 659.7653965867141 477.68743684299704 669.9165958257504 457.4733373075006 659.7653965867141 477.68743684299704" />
<polygon stroke="none" fill="#7a7682" fill-opacity="1.0" points=" 659.7653965867141 477.68743684299704 659.7653965867141 477.68743684299704 669.9165958257504 457.4733373075006" />
<polygon stroke="none" fill="#7a7682" fill-opacity="1.0" points=" 669.9165958257504 457.4733373075006 659.7653965867141 477.68743684299704 669.9165958257504 457.4733373075006" />
<polygon stroke="none" fill="#ff0000" fill-opacity="1.0" points=" 301.45943310535205 543.6730094506421 301.45943310535205 543.6730094506421 316.48065012688807 652.9859837595756" />
<polygon stroke="none" fill="#ff0000" fill-opacity="1.0" points=" 316.48065012688807 652.9859837595756 301.45943310535205 543.6730094506421 316.48065012688807 652.9859837595756" />
<polygon stroke="none" fill="#7a7682" fill-opacity="1.0" points=" 542.7624085576853 478.33806280210814 542.7624085576853 478.33806280210814 316.48065012688807 652.9859837595756" />
<polygon stroke="none" fill="#7a7682" fill-opacity="1.0" points=" 316.48065012688807 652.9859837595756 542.7624085576853 478.33806280210814 316.48065012688807 652.9859837595756" />
<polygon stroke="none" fill="#7a7682" fill-opacity="1.0" points=" 316.48065012688807 652.9859837595756 316.48065012688807 652.9859837595756 301.45943310535205 543.6730094506421" />
<polygon stroke="none" fill="#7a7682" fill-opacity="1.0" points=" 301.45943310535205 543.6730094506421 316.48065012688807 652.9859837595756 301.45943310535205 543.6730094506421" />
<polygon stroke="none" fill="#7a7682" fill-opacity="1.0" points=" 316.48065012688807 652.9859837595756 316.48065012688807 652.9859837595756 558.86414387513 494.2470982942193" />
<polygon stroke="none" fill="#7a7682" fill-opacity="1.0" points=" 558.86414387513 494.2470982942193 316.48065012688807 652.9859837595756 558.86414387513 494.2470982942193" />
<polygon stroke="none" fill="#ff0000" fill-opacity="1.0" points=" 579.0874992966613 504.40405748041917 579.0874992966613 504.40405748041917 558.86414387513 494.2470982942193" />
<polygon stroke="none" fill="#ff0000" fill-opacity="1.0" points=" 558.86414387513 494.2470982942193 579.0874992966613 504.40405748041917 558.86414387513 494.2470982942193" />
<polygon stroke="none" fill="#7a7682" fill-opacity="1.0" points=" 558.86414387513 494.2470982942193 558.86414387513 494.2470982942193 579.0874992966613 504.40405748041917" />
<polygon stroke="none" fill="#7a7682" fill-opacity="1.0" points=" 579.0874992966613 504.40405748041917 558.86414387513 494.2470982942193 579.0874992966613 504.40405748041917" />
<polygon stroke="none" fill="#ff0000" fill-opacity="1.0" points=" 673.3255114477968 435.10571077115094 673.3255114477968 435.10571077115094 669.9165958257504 457.4733373075006" />
<polygon stroke="none" fill="#ff0000" fill-opacity="1.0" points=" 669.9165958257504 457.4733373075006 673.3255114477968 435.10571077115094 669.9165958257504 457.4733373075006" />
<polygon stroke="none" fill="#7a7682" fill-opacity="1.0" points=" 669.9165958257504 457.4733373075006 669.9165958257504 457.4733373075006 673.3255114477968 435.10571077115094" />
<polygon stroke="none" fill="#7a7682" fill-opacity="1.0" points=" 673.3255114477968 435.10571077115094 669.9165958257504 457.4733373075006 673.3255114477968 435.10571077115094" />
<polygon stroke="none" fill="#ff0000" fill-opacity="1.0" points=" 558.86414387513 494.2470982942193 558.86414387513 494.2470982942193 542.7624085576853 478.33806280210814" />
<polygon stroke="none" fill="#ff0000" fill-opacity="1.0" points=" 542.7624085576853 478.33806280210814 558.86414387513 494.2470982942193 542.7624085576853 478.33806280210814" />
<polygon stroke="none" fill="#7a7682" fill-opacity="1.0" points=" 542.7624085576853 478.33806280210814 542.7624085576853 478.33806280210814 558.86414387513 494.2470982942193" />
<polygon stroke="none" fill="#7a7682" fill-opacity="1.0" points=" 558.86414387513 494.2470982942193 542.7624085576853 478.33806280210814 558.86414387513 494.2470982942193" />
<polygon stroke="none" fill="#ff0000" fill-opacity="1.0" points=" 669.6568835586027 412.77251277222626 669.6568835586027 412.77251277222626 673.3255114477968 435.10571077115094" />
<polygon stroke="none" fill="#ff0000" fill-opacity="1.0" points=" 673.3255114477968 435.10571077115094 669.6568835586027 412.77251277222626 673.3255114477968 435.10571077115094" />
<polygon stroke="none" fill="#7a7682" fill-opacity="1.0" points=" 673.3255114477968 435.10571077115094 673.3255114477968 435.10571077115094 669.6568835586027 412.77251277222626" />
<polygon stroke="none" fill="#7a7682" fill-opacity="1.0" points=" 669.6568835586027 412.77251277222626 673.3255114477968 435.10571077115094 669.6568835586027 412.77251277222626" />
<polygon stroke="none" fill="#ff0000" fill-opacity="1.0" points=" 542.7624085576853 478.33806280210814 542.7624085576853 478.33806280210814 532.3594225106841 458.23226587389087" />
<polygon stroke="none" fill="#ff0000" fill-opacity="1.0" points=" 532.3594225106841 458.23226587389087 542.7624085576853 478.33806280210814 532.3594225106841 458.23226587389087" />
<polygon stroke="none" fill="#7a7682" fill-opacity="1.0" points=" 532.3594225106841 458.23226587389087 532.3594225106841 458.23226587389087 542.7624085576853 478.33806280210814" />
<polygon stroke="none" fill="#7a7682" fill-opacity="1.0" points=" 542.7624085576853 478.33806280210814 532.3594225106841 458.23226587389087 542.7624085576853 478.33806280210814" />
<polygon stroke="none" fill="#7a7682" fill-opacity="1.0" points=" 542.7624085576853 478.33806280210814 542.7624085576853 478.33806280210814 301.45943310535205 543.6730094506421" />
<polygon stroke="none" fill="#7a7682" fill-opacity="1.0" points=" 301.45943310535205 543.6730094506421 542.7624085576853 478.33806280210814 301.45943310535205 543.6730094506421" />
<polygon stroke="none" fill="#ff0000" fill-opacity="1.0" points=" 659.2676447436828 392.65954656306064 659.2676447436828 392.65954656306064 669.6568835586027 412.77251277222626" />
<polygon stroke="none" fill="#ff0000" fill-opacity="1.0" points=" 669.6568835586027 412.77251277222626 659.2676447436828 392.65954656306064 669.6568835586027 412.77251277222626" />
<polygon stroke="none" fill="#7a7682" fill-opacity="1.0" points=" 945.3722898188807 206.43337658515713 945.3722898188807 206.43337658515713 669.6568835586027 412.77251277222626" />
<polygon stroke="none" fill="#7a7682" fill-opacity="1.0" points=" 669.6568835586027 412.77251277222626 945.3722898188807 206.43337658515713 669.6568835586027 412.77251277222626" />
<polygon stroke="none" fill="#7a7682" fill-opacity="1.0" points=" 669.6568835586027 412.77251277222626 669.6568835586027 412.77251277222626 659.2676447436828 392.65954656306064" />
<polygon stroke="none" fill="#7a7682" fill-opacity="1.0" points=" 659.2676447436828 392.65954656306064 669.6568835586027 412.77251277222626 659.2676447436828 392.65954656306064" />
<polygon stroke="none" fill="#ff0000" fill-opacity="1.0" points=" 532.3594225106841 458.23226587389087 532.3594225106841 458.23226587389087 528.6754544709247 435.8967834063815" />
<polygon stroke="none" fill="#ff0000" fill-opacity="1.0" points=" 528.6754544709247 435.8967834063815 532.3594225106841 458.23226587389087 528.6754544709247 435.8967834063815" />
<polygon stroke="none" fill="#7a7682" fill-opacity="1.0" points=" 528.6754544709247 435.8967834063815 528.6754544709247 435.8967834063815 532.3594225106841 458.23226587389087" />
<polygon stroke="none" fill="#7a7682" fill-opacity="1.0" points=" 532.3594225106841 458.23226587389087 528.6754544709247 435.8967834063815 532.3594225106841 458.23226587389087" />
<polygon stroke="none" fill="#7a7682" fill-opacity="1.0" points=" 301.45943310535205 543.6730094506421 301.45943310535205 543.6730094506421 532.3594225106841 458.23226587389087" />
<polygon stroke="none" fill="#7a7682" fill-opacity="1.0" points=" 532.3594225106841 458.23226587389087 301.45943310535205 543.6730094506421 532.3594225106841 458.23226587389087" />
<polygon stroke="none" fill="#7a7682" fill-opacity="1.0" points=" 532.3594225106841 458.23226587389087 532.3594225106841 458.23226587389087 316.68437405678924 432.35930554262507" />
<polygon stroke="none" fill="#7a7682" fill-opacity="1.0" points=" 316.68437405678924 432.35930554262507 532.3594225106841 458.23226587389087 316.68437405678924 432.35930554262507" />
<polygon stroke="none" fill="#ff0000" fill-opacity="1.0" points=" 643.1728127652151 376.7366264616993 643.1728127652151 376.7366264616993 659.2676447436828 392.65954656306064" />
<polygon stroke="none" fill="#ff0000" fill-opacity="1.0" points=" 659.2676447436828 392.65954656306064 643.1728127652151 376.7366264616993 659.2676447436828 392.65954656306064" />
<polygon stroke="none" fill="#7a7682" fill-opacity="1.0" points=" 659.2676447436828 392.65954656306064 659.2676447436828 392.65954656306064 814.3037652293723 146.2302806637736" />
<polygon stroke="none" fill="#7a7682" fill-opacity="1.0" points=" 814.3037652293723 146.2302806637736 659.2676447436828 392.65954656306064 814.3037652293723 146.2302806637736" />
<polygon stroke="none" fill="#7a7682" fill-opacity="1.0" points=" 659.2676447436828 392.65954656306064 659.2676447436828 392.65954656306064 643.1728127652151 376.7366264616993" />
<polygon stroke="none" fill="#7a7682" fill-opacity="1.0" points=" 643.1728127652151 376.7366264616993 659.2676447436828 392.65954656306064 643.1728127652151 376.7366264616993" />
<polygon stroke="none" fill="#7a7682" fill-opacity="1.0" points=" 945.3722898188807 206.43337658515713 945.3722898188807 206.43337658515713 659.2676447436828 392.65954656306064" />
<polygon stroke="none" fill="#7a7682" fill-opacity="1.0" points=" 659.2676447436828 392.65954656306064 945.3722898188807 206.43337658515713 659.2676447436828 392.65954656306064" />
<polygon stroke="none" fill="#ff0000" fill-opacity="1.0" points=" 528.6754544709247 435.8967834063815 528.6754544709247 435.8967834063815 532.0732964394066 413.51829124065017" />
<polygon stroke="none" fill="#ff0000" fill-opacity="1.0" points=" 532.0732964394066 413.51829124065017 528.6754544709247 435.8967834063815 532.0732964394066 413.51829124065017" />
<polygon stroke="none" fill="#7a7682" fill-opacity="1.0" points=" 363.35718869902365 326.4435575323509 363.35718869902365 326.4435575323509 528.6754544709247 435.8967834063815" />
<polygon stroke="none" fill="#7a7682" fill-opacity="1.0" points=" 528.6754544709247 435.8967834063815 363.35718869902365 326.4435575323509 528.6754544709247 435.8967834063815" />
<polygon stroke="none" fill="#7a7682" fill-opacity="1.0" points=" 532.0732964394066 413.51829124065017 532.0732964394066 413.51829124065017 528.6754544709247 435.8967834063815" />
<polygon stroke="none" fill="#7a7682" fill-opacity="1.0" points=" 528.6754544709247 435.8967834063815 532.0732964394066 413.51829124065017 528.6754544709247 435.8967834063815" />
<polygon stroke="none" fill="#7a7682" fill-opacity="1.0" points=" 528.6754544709247 435.8967834063815 528.6754544709247 435.8967834063815 316.68437405678924 432.35930554262507" />
<polygon stroke="none" fill="#7a7682" fill-opacity="1.0" points=" 316.68437405678924 432.35930554262507 528.6754544709247 435.8967834063815 316.68437405678924 432.35930554262507" />
<polygon stroke="none" fill="#ff0000" fill-opacity="1.0" points=" 643.1728127652151 376.7366264616993 643.1728127652151 376.7366264616993 622.946879948549 366.564370785886" />
<polygon stroke="none" fill="#ff0000" fill-opacity="1.0" points=" 622.946879948549 366.564370785886 643.1728127652151 376.7366264616993 622.946879948549 366.564370785886" />
<polygon stroke="none" fill="#7a7682" fill-opacity="1.0" points=" 814.3037652293723 146.2302806637736 814.3037652293723 146.2302806637736 643.1728127652151 376.7366264616993" />
<polygon stroke="none" fill="#7a7682" fill-opacity="1.0" points=" 643.1728127652151 376.7366264616993 814.3037652293723 146.2302806637736 643.1728127652151 376.7366264616993" />
<polygon stroke="none" fill="#7a7682" fill-opacity="1.0" points=" 643.1728127652151 376.7366264616993 643.1728127652151 376.7366264616993 622.946879948549 366.564370785886" />
<polygon stroke="none" fill="#7a7682" fill-opacity="1.0" points=" 622.946879948549 366.564370785886 643.1728127652151 376.7366264616993 622.946879948549 366.564370785886" />
<polygon stroke="none" fill="#7a7682" fill-opacity="1.0" points=" 643.1728127652151 376.7366264616993 643.1728127652151 376.7366264616993 676.0959167159547 134.63007388838588" />
<polygon stroke="none" fill="#7a7682" fill-opacity="1.0" points=" 676.0959167159547 134.63007388838588 643.1728127652151 376.7366264616993 676.0959167159547 134.63007388838588" />
<polygon stroke="none" fill="#ff0000" fill-opacity="1.0" points=" 301.45943310535205 543.6730094506421 301.45943310535205 543.6730094506421 316.68437405678924 432.35930554262507" />
<polygon stroke="none" fill="#ff0000" fill-opacity="1.0" points=" 316.68437405678924 432.35930554262507 301.45943310535205 543.6730094506421 316.68437405678924 432.35930554262507" />
<polygon stroke="none" fill="#7a7682" fill-opacity="1.0" points=" 301.45943310535205 543.6730094506421 301.45943310535205 543.6730094506421 316.68437405678924 432.35930554262507" />
<polygon stroke="none" fill="#7a7682" fill-opacity="1.0" points=" 316.68437405678924 432.35930554262507 301.45943310535205 543.6730094506421 316.68437405678924 432.35930554262507" />
<polygon stroke="none" fill="#ff0000" fill-opacity="1.0" points=" 814.3037652293723 146.2302806637736 814.3037652293723 146.2302806637736 945.3722898188807 206.43337658515713" />
<polygon stroke="none" fill="#ff0000" fill-opacity="1.0" points=" 945.3722898188807 206.43337658515713 814.3037652293723 146.2302806637736 945.3722898188807 206.43337658515713" />
<polygon stroke="none" fill="#7a7682" fill-opacity="1.0" points=" 814.3037652293723 146.2302806637736 814.3037652293723 146.2302806637736 945.3722898188807 206.43337658515713" />
<polygon stroke="none" fill="#7a7682" fill-opacity="1.0" points=" 945.3722898188807 206.43337658515713 814.3037652293723 146.2302806637736 945.3722898188807 206.43337658515713" />
<polygon stroke="none" fill="#ff0000" fill-opacity="1.0" points=" 542.2219182815502 393.2888952152922 542.2219182815502 393.2888952152922 532.0732964394066 413.51829124065017" />
<polygon stroke="none" fill="#ff0000" fill-opacity="1.0" points=" 532.0732964394066 413.51829124065017 542.2219182815502 393.2888952152922 532.0732964394066 413.51829124065017" />
<polygon stroke="none" fill="#7a7682" fill-opacity="1.0" points=" 363.35718869902365 326.4435575323509 363.35718869902365 326.4435575323509 532.0732964394066 413.51829124065017" />
<polygon stroke="none" fill="#7a7682" fill-opacity="1.0" points=" 532.0732964394066 413.51829124065017 363.35718869902365 326.4435575323509 532.0732964394066 413.51829124065017" />
<polygon stroke="none" fill="#7a7682" fill-opacity="1.0" points=" 542.2219182815502 393.2888952152922 542.2219182815502 393.2888952152922 532.0732964394066 413.51829124065017" />
<polygon stroke="none" fill="#7a7682" fill-opacity="1.0" points=" 532.0732964394066 413.51829124065017 542.2219182815502 393.2888952152922 532.0732964394066 413.51829124065017" />
<polygon stroke="none" fill="#ff0000" fill-opacity="1.0" points=" 622.946879948549 366.564370785886 622.946879948549 366.564370785886 600.57006661048 363.14068452997174" />
<polygon stroke="none" fill="#ff0000" fill-opacity="1.0" points=" 600.57006661048 363.14068452997174 622.946879948549 366.564370785886 600.57006661048 363.14068452997174" />
<polygon stroke="none" fill="#7a7682" fill-opacity="1.0" points=" 622.946879948549 366.564370785886 622.946879948549 366.564370785886 676.0959167159547 134.63007388838588" />
<polygon stroke="none" fill="#7a7682" fill-opacity="1.0" points=" 676.0959167159547 134.63007388838588 622.946879948549 366.564370785886 676.0959167159547 134.63007388838588" />
<polygon stroke="none" fill="#7a7682" fill-opacity="1.0" points=" 547.7812010849983 167.17724690532742 547.7812010849983 167.17724690532742 622.946879948549 366.564370785886" />
<polygon stroke="none" fill="#7a7682" fill-opacity="1.0" points=" 622.946879948549 366.564370785886 547.7812010849983 167.17724690532742 622.946879948549 366.564370785886" />
<polygon stroke="none" fill="#7a7682" fill-opacity="1.0" points=" 622.946879948549 366.564370785886 622.946879948549 366.564370785886 600.57006661048 363.14068452997174" />
<polygon stroke="none" fill="#7a7682" fill-opacity="1.0" points=" 600.57006661048 363.14068452997174 622.946879948549 366.564370785886 600.57006661048 363.14068452997174" />
<polygon stroke="none" fill="#ff0000" fill-opacity="1.0" points=" 558.128269303479 377.1909632679552 558.128269303479 377.1909632679552 542.2219182815502 393.2888952152922" />
<polygon stroke="none" fill="#ff0000" fill-opacity="1.0" points=" 542.2219182815502 393.2888952152922 558.128269303479 377.1909632679552 542.2219182815502 393.2888952152922" />
<polygon stroke="none" fill="#7a7682" fill-opacity="1.0" points=" 363.35718869902365 326.4435575323509 363.35718869902365 326.4435575323509 542.2219182815502 393.2888952152922" />
<polygon stroke="none" fill="#7a7682" fill-opacity="1.0" points=" 542.2219182815502 393.2888952152922 363.35718869902365 326.4435575323509 542.2219182815502 393.2888952152922" />
<polygon stroke="none" fill="#7a7682" fill-opacity="1.0" points=" 441.29498331238955 234.67606602844398 441.29498331238955 234.67606602844398 542.2219182815502 393.2888952152922" />
<polygon stroke="none" fill="#7a7682" fill-opacity="1.0" points=" 542.2219182815502 393.2888952152922 441.29498331238955 234.67606602844398 542.2219182815502 393.2888952152922" />
<polygon stroke="none" fill="#7a7682" fill-opacity="1.0" points=" 558.128269303479 377.1909632679552 558.128269303479 377.1909632679552 542.2219182815502 393.2888952152922" />
<polygon stroke="none" fill="#7a7682" fill-opacity="1.0" points=" 542.2219182815502 393.2888952152922 558.128269303479 377.1909632679552 542.2219182815502 393.2888952152922" />
<polygon stroke="none" fill="#ff0000" fill-opacity="1.0" points=" 600.57006661048 363.14068452997174 600.57006661048 363.14068452997174 578.2343442890901 366.8022467235439" />
<polygon stroke="none" fill="#ff0000" fill-opacity="1.0" points=" 578.2343442890901 366.8022467235439 600.57006661048 363.14068452997174 578.2343442890901 366.8022467235439" />
<polygon stroke="none" fill="#7a7682" fill-opacity="1.0" points=" 600.57006661048 363.14068452997174 600.57006661048 363.14068452997174 578.2343442890901 366.8022467235439" />
<polygon stroke="none" fill="#7a7682" fill-opacity="1.0" points=" 578.2343442890901 366.8022467235439 600.57006661048 363.14068452997174 578.2343442890901 366.8022467235439" />
<polygon stroke="none" fill="#7a7682" fill-opacity="1.0" points=" 600.57006661048 363.14068452997174 600.57006661048 363.14068452997174 547.7812010849983 167.17724690532742" />
<polygon stroke="none" fill="#7a7682" fill-opacity="1.0" points=" 547.7812010849983 167.17724690532742 600.57006661048 363.14068452997174 547.7812010849983 167.17724690532742" />
<polygon stroke="none" fill="#ff0000" fill-opacity="1.0" points=" 558.128269303479 377.1909632679552 558.128269303479 377.1909632679552 578.2343442890901 366.8022467235439" />
<polygon stroke="none" fill="#ff0000" fill-opacity="1.0" points=" 578.2343442890901 366.8022467235439 558.128269303479 377.1909632679552 578.2343442890901 366.8022467235439" />
<polygon stroke="none" fill="#7a7682" fill-opacity="1.0" points=" 441.29498331238955 234.67606602844398 441.29498331238955 234.67606602844398 558.128269303479 377.1909632679552" />
<polygon stroke="none" fill="#7a7682" fill-opacity="1.0" points=" 558.128269303479 377.1909632679552 441.29498331238955 234.67606602844398 558.128269303479 377.1909632679552" />
<polygon stroke="none" fill="#7a7682" fill-opacity="1.0" points=" 578.2343442890901 366.8022467235439 578.2343442890901 366.8022467235439 558.128269303479 377.1909632679552" />
<polygon stroke="none" fill="#7a7682" fill-opacity="1.0" points=" 558.128269303479 377.1909632679552 578.2343442890901 366.8022467235439 558.128269303479 377.1909632679552" />
<polygon stroke="none" fill="#7a7682" fill-opacity="1.0" points=" 578.2343442890901 366.8022467235439 578.2343442890901 366.8022467235439 441.29498331238955 234.67606602844398" />
<polygon stroke="none" fill="#7a7682" fill-opacity="1.0" points=" 441.29498331238955 234.67606602844398 578.2343442890901 366.8022467235439 441.29498331238955 234.67606602844398" />
<polygon stroke="none" fill="#7a7682" fill-opacity="1.0" points=" 547.7812010849983 167.17724690532742 547.7812010849983 167.17724690532742 578.2343442890901 366.8022467235439" />
<polygon stroke="none" fill="#7a7682" fill-opacity="1.0" points=" 578.2343442890901 366.8022467235439 547.7812010849983 167.17724690532742 578.2343442890901 366.8022467235439" />
<polygon stroke="none" fill="#ff0000" fill-opacity="1.0" points=" 363.35718869902365 326.4435575323509 363.35718869902365 326.4435575323509 316.68437405678924 432.35930554262507" />
<polygon stroke="none" fill="#ff0000" fill-opacity="1.0" points=" 316.68437405678924 432.35930554262507 363.35718869902365 326.4435575323509 316.68437405678924 432.35930554262507" />
<polygon stroke="none" fill="#7a7682" fill-opacity="1.0" points=" 316.68437405678924 432.35930554262507 316.68437405678924 432.35930554262507 363.35718869902365 326.4435575323509" />
<polygon stroke="none" fill="#7a7682" fill-opacity="1.0" points=" 363.35718869902365 326.4435575323509 316.68437405678924 432.35930554262507 363.35718869902365 326.4435575323509" />
<polygon stroke="none" fill="#ff0000" fill-opacity="1.0" points=" 814.3037652293723 146.2302806637736 814.3037652293723 146.2302806637736 676.0959167159547 134.63007388838588" />
<polygon stroke="none" fill="#ff0000" fill-opacity="1.0" points=" 676.0959167159547 134.63007388838588 814.3037652293723 146.2302806637736 676.0959167159547 134.63007388838588" />
<polygon stroke="none" fill="#7a7682" fill-opacity="1.0" points=" 676.0959167159547 134.63007388838588 676.0959167159547 134.63007388838588 814.3037652293723 146.2302806637736" />
<polygon stroke="none" fill="#7a7682" fill-opacity="1.0" points=" 814.3037652293723 146.2302806637736 676.0959167159547 134.63007388838588 814.3037652293723 146.2302806637736" />
<polygon stroke="none" fill="#ff0000" fill-opacity="1.0" points=" 441.29498331238955 234.67606602844398 441.29498331238955 234.67606602844398 363.35718869902365 326.4435575323509" />
<polygon stroke="none" fill="#ff0000" fill-opacity="1.0" points=" 363.35718869902365 326.4435575323509 441.29498331238955 234.67606602844398 363.35718869902365 326.4435575323509" />
<polygon stroke="none" fill="#7a7682" fill-opacity="1.0" points=" 363.35718869902365 326.4435575323509 363.35718869902365 326.4435575323509 441.29498331238955 234.67606602844398" />
<polygon stroke="none" fill="#7a7682" fill-opacity="1.0" points=" 441.29498331238955 234.67606602844398 363.35718869902365 326.4435575323509 441.29498331238955 234.67606602844398" />
<polygon stroke="none" fill="#ff0000" fill-opacity="1.0" points=" 676.0959167159547 134.63007388838588 676.0959167159547 134.63007388838588 547.7812010849983 167.17724690532742" />
<polygon stroke="none" fill="#ff0000" fill-opacity="1.0" points=" 547.7812010849983 167.17724690532742 676.0959167159547 134.63007388838588 547.7812010849983 167.17724690532742" />
<polygon stroke="none" fill="#7a7682" fill-opacity="1.0" points=" 547.7812010849983 167.17724690532742 547.7812010849983 167.17724690532742 676.0959167159547 134.63007388838588" />
<polygon stroke="none" fill="#7a7682" fill-opacity="1.0" points=" 676.0959167159547 134.63007388838588 547.7812010849983 167.17724690532742 676.0959167159547 134.63007388838588" />
<polygon stroke="none" fill="#ff0000" fill-opacity="1.0" points=" 441.29498331238955 234.67606602844398 441.29498331238955 234.67606602844398 547.7812010849983 167.17724690532742" />
<polygon stroke="none" fill="#ff0000" fill-opacity="1.0" points=" 547.7812010849983 167.17724690532742 441.29498331238955 234.67606602844398 547.7812010849983 167.17724690532742" />
<polygon stroke="none" fill="#7a7682" fill-opacity="1.0" points=" 441.29498331238955 234.67606602844398 441.29498331238955 234.67606602844398 547.7812010849983 167.17724690532742" />
<polygon stroke="none" fill="#7a7682" fill-opacity="1.0" points=" 547.7812010849983 167.17724690532742 441.29498331238955 234.67606602844398 547.7812010849983 167.17724690532742" />
</svg>
