<svg color-interpolation="sRGB" color-rendering="auto" fill="none"    fill-opacity="1" font-family="'Arial'" font-size="12" font-style="normal"    font-weight="normal"   viewBox="0 0 671 584 "  image-rendering="auto"     shape-rendering="auto" stroke="black" stroke-dasharray="none"     stroke-dashoffset="0" stroke-linecap="square" stroke-linejoin="bevel"    stroke-miterlimit="10" stroke-opacity="1" stroke-width="1"     text-rendering="auto" >
<polygon stroke="none" fill="#ff0000" fill-opacity="1.0" points=" 96.04606315532502 242.86073301825311 96.04606315532502 242.86073301825311 158.54674087056736 125.73894987203494" />
<polygon stroke="none" fill="#ff0000" fill-opacity="1.0" points=" 158.54674087056736 125.73894987203494 96.04606315532502 242.86073301825311 158.54674087056736 125.73894987203494" />
<polygon stroke="none" fill="#ff0000" fill-opacity="1.0" points=" 321.8727320698997 50.641783571729405 321.8727320698997 50.641783571729405 158.54674087056736 125.73894987203494" />
<polygon stroke="none" fill="#ff0000" fill-opacity="1.0" points=" 158.54674087056736 125.73894987203494 321.8727320698997 50.641783571729405 158.54674087056736 125.73894987203494" />
<polygon stroke="none" fill="#b6afb6" fill-opacity="1.0" points=" 158.54674087056736 125.73894987203494 96.04606315532502 242.86073301825311 243.49708880332645 276.6754761679182" />
<polygon stroke="none" fill="#b7b0b7" fill-opacity="1.0" points=" 158.54674087056736 125.73894987203494 243.49708880332645 276.6754761679182 259.04416849028274 267.2451116317676" />
<polygon stroke="none" fill="#b7b0b7" fill-opacity="1.0" points=" 321.8727320698997 50.641783571729405 158.54674087056736 125.73894987203494 276.72051610746485 263.06000278188594" />
<polygon stroke="none" fill="#b9b2b9" fill-opacity="1.0" points=" 276.72051610746485 263.06000278188594 158.54674087056736 125.73894987203494 259.04416849028274 267.2451116317676" />
<polygon stroke="none" fill="#ff0000" fill-opacity="1.0" points=" 321.8727320698997 50.641783571729405 321.8727320698997 50.641783571729405 508.94224485075245 122.36623789726147" />
<polygon stroke="none" fill="#ff0000" fill-opacity="1.0" points=" 508.94224485075245 122.36623789726147 321.8727320698997 50.641783571729405 508.94224485075245 122.36623789726147" />
<polygon stroke="none" fill="#b9b2b9" fill-opacity="1.0" points=" 508.94224485075245 122.36623789726147 321.8727320698997 50.641783571729405 311.55925932566834 271.51982864041736" />
<polygon stroke="none" fill="#bbb4bb" fill-opacity="1.0" points=" 311.55925932566834 271.51982864041736 321.8727320698997 50.641783571729405 294.81159160396925 264.5297895082598" />
<polygon stroke="none" fill="#bcb5bc" fill-opacity="1.0" points=" 294.81159160396925 264.5297895082598 321.8727320698997 50.641783571729405 276.72051610746485 263.06000278188594" />
<polygon stroke="none" fill="#ff0000" fill-opacity="1.0" points=" 96.04606315532502 242.86073301825311 96.04606315532502 242.86073301825311 93.79043101194654 335.6737552267875" />
<polygon stroke="none" fill="#ff0000" fill-opacity="1.0" points=" 93.79043101194654 335.6737552267875 96.04606315532502 242.86073301825311 93.79043101194654 335.6737552267875" />
<polygon stroke="none" fill="#b7b0b7" fill-opacity="1.0" points=" 93.79043101194654 335.6737552267875 224.47875769554128 307.1983313300626 96.04606315532502 242.86073301825311" />
<polygon stroke="none" fill="#b7b0b7" fill-opacity="1.0" points=" 96.04606315532502 242.86073301825311 224.47875769554128 307.1983313300626 231.58836465081833 290.4372520551896" />
<polygon stroke="none" fill="#b7b0b7" fill-opacity="1.0" points=" 96.04606315532502 242.86073301825311 231.58836465081833 290.4372520551896 243.49708880332645 276.6754761679182" />
<polygon stroke="none" fill="#ff0000" fill-opacity="1.0" points=" 579.3610102033397 279.3787860344412 579.3610102033397 279.3787860344412 508.94224485075245 122.36623789726147" />
<polygon stroke="none" fill="#ff0000" fill-opacity="1.0" points=" 508.94224485075245 122.36623789726147 579.3610102033397 279.3787860344412 508.94224485075245 122.36623789726147" />
<polygon stroke="none" fill="#cfc8cf" fill-opacity="1.0" points=" 325.32903418800504 283.36088564222626 334.7681864291388 298.9089496541981 508.94224485075245 122.36623789726147" />
<polygon stroke="none" fill="#cec7ce" fill-opacity="1.0" points=" 508.94224485075245 122.36623789726147 334.7681864291388 298.9089496541981 579.3610102033397 279.3787860344412" />
<polygon stroke="none" fill="#c1bac1" fill-opacity="1.0" points=" 325.32903418800504 283.36088564222626 508.94224485075245 122.36623789726147 311.55925932566834 271.51982864041736" />
<polygon stroke="none" fill="#ff0000" fill-opacity="1.0" points=" 113.83205391327817 399.44550223322494 113.83205391327817 399.44550223322494 93.79043101194654 335.6737552267875" />
<polygon stroke="none" fill="#ff0000" fill-opacity="1.0" points=" 93.79043101194654 335.6737552267875 113.83205391327817 399.44550223322494 93.79043101194654 335.6737552267875" />
<polygon stroke="none" fill="#b8b1b8" fill-opacity="1.0" points=" 113.83205391327817 399.44550223322494 222.86897299710012 325.333052959737 93.79043101194654 335.6737552267875" />
<polygon stroke="none" fill="#b8b1b8" fill-opacity="1.0" points=" 93.79043101194654 335.6737552267875 222.86897299710012 325.333052959737 224.47875769554128 307.1983313300626" />
<polygon stroke="none" fill="#ff0000" fill-opacity="1.0" points=" 276.72051610746485 263.06000278188594 276.72051610746485 263.06000278188594 259.04416849028274 267.2451116317676" />
<polygon stroke="none" fill="#ff0000" fill-opacity="1.0" points=" 259.04416849028274 267.2451116317676 276.72051610746485 263.06000278188594 259.04416849028274 267.2451116317676" />
<polygon stroke="none" fill="#ff0000" fill-opacity="1.0" points=" 259.04416849028274 267.2451116317676 259.04416849028274 267.2451116317676 243.49708880332645 276.6754761679182" />
<polygon stroke="none" fill="#ff0000" fill-opacity="1.0" points=" 243.49708880332645 276.6754761679182 259.04416849028274 267.2451116317676 243.49708880332645 276.6754761679182" />
<polygon stroke="none" fill="#ff0000" fill-opacity="1.0" points=" 231.58836465081833 290.4372520551896 231.58836465081833 290.4372520551896 243.49708880332645 276.6754761679182" />
<polygon stroke="none" fill="#ff0000" fill-opacity="1.0" points=" 243.49708880332645 276.6754761679182 231.58836465081833 290.4372520551896 243.49708880332645 276.6754761679182" />
<polygon stroke="none" fill="#ff0000" fill-opacity="1.0" points=" 276.72051610746485 263.06000278188594 276.72051610746485 263.06000278188594 294.81159160396925 264.5297895082598" />
<polygon stroke="none" fill="#ff0000" fill-opacity="1.0" points=" 294.81159160396925 264.5297895082598 276.72051610746485 263.06000278188594 294.81159160396925 264.5297895082598" />
<polygon stroke="none" fill="#ff0000" fill-opacity="1.0" points=" 224.47875769554128 307.1983313300626 224.47875769554128 307.1983313300626 231.58836465081833 290.4372520551896" />
<polygon stroke="none" fill="#ff0000" fill-opacity="1.0" points=" 231.58836465081833 290.4372520551896 224.47875769554128 307.1983313300626 231.58836465081833 290.4372520551896" />
<polygon stroke="none" fill="#ff0000" fill-opacity="1.0" points=" 294.81159160396925 264.5297895082598 294.81159160396925 264.5297895082598 311.55925932566834 271.51982864041736" />
<polygon stroke="none" fill="#ff0000" fill-opacity="1.0" points=" 311.55925932566834 271.51982864041736 294.81159160396925 264.5297895082598 311.55925932566834 271.51982864041736" />
<polygon stroke="none" fill="#ff0000" fill-opacity="1.0" points=" 224.47875769554128 307.1983313300626 224.47875769554128 307.1983313300626 222.86897299710012 325.333052959737" />
<polygon stroke="none" fill="#ff0000" fill-opacity="1.0" points=" 222.86897299710012 325.333052959737 224.47875769554128 307.1983313300626 222.86897299710012 325.333052959737" />
<polygon stroke="none" fill="#ff0000" fill-opacity="1.0" points=" 311.55925932566834 271.51982864041736 311.55925932566834 271.51982864041736 325.32903418800504 283.36088564222626" />
<polygon stroke="none" fill="#ff0000" fill-opacity="1.0" points=" 325.32903418800504 283.36088564222626 311.55925932566834 271.51982864041736 325.32903418800504 283.36088564222626" />
<polygon stroke="none" fill="#ff0000" fill-opacity="1.0" points=" 226.92928270600603 343.07561408388926 226.92928270600603 343.07561408388926 222.86897299710012 325.333052959737" />
<polygon stroke="none" fill="#ff0000" fill-opacity="1.0" points=" 222.86897299710012 325.333052959737 226.92928270600603 343.07561408388926 222.86897299710012 325.333052959737" />
<polygon stroke="none" fill="#b8b2b8" fill-opacity="1.0" points=" 113.83205391327817 399.44550223322494 226.92928270600603 343.07561408388926 222.86897299710012 325.333052959737" />
<polygon stroke="none" fill="#ff0000" fill-opacity="1.0" points=" 334.7681864291388 298.9089496541981 334.7681864291388 298.9089496541981 325.32903418800504 283.36088564222626" />
<polygon stroke="none" fill="#ff0000" fill-opacity="1.0" points=" 325.32903418800504 283.36088564222626 334.7681864291388 298.9089496541981 325.32903418800504 283.36088564222626" />
<polygon stroke="none" fill="#ff0000" fill-opacity="1.0" points=" 140.24878786247993 442.8797496825928 140.24878786247993 442.8797496825928 113.83205391327817 399.44550223322494" />
<polygon stroke="none" fill="#ff0000" fill-opacity="1.0" points=" 113.83205391327817 399.44550223322494 140.24878786247993 442.8797496825928 113.83205391327817 399.44550223322494" />
<polygon stroke="none" fill="#bab3ba" fill-opacity="1.0" points=" 140.24878786247993 442.8797496825928 236.2780471266172 358.6893322070404 113.83205391327817 399.44550223322494" />
<polygon stroke="none" fill="#b9b2b9" fill-opacity="1.0" points=" 113.83205391327817 399.44550223322494 236.2780471266172 358.6893322070404 226.92928270600603 343.07561408388926" />
<polygon stroke="none" fill="#ff0000" fill-opacity="1.0" points=" 226.92928270600603 343.07561408388926 226.92928270600603 343.07561408388926 236.2780471266172 358.6893322070404" />
<polygon stroke="none" fill="#ff0000" fill-opacity="1.0" points=" 236.2780471266172 358.6893322070404 226.92928270600603 343.07561408388926 236.2780471266172 358.6893322070404" />
<polygon stroke="none" fill="#ff0000" fill-opacity="1.0" points=" 334.7681864291388 298.9089496541981 334.7681864291388 298.9089496541981 579.3610102033397 279.3787860344412" />
<polygon stroke="none" fill="#ff0000" fill-opacity="1.0" points=" 579.3610102033397 279.3787860344412 334.7681864291388 298.9089496541981 579.3610102033397 279.3787860344412" />
<polygon stroke="none" fill="#ff0000" fill-opacity="1.0" points=" 579.3610102033397 279.3787860344412 579.3610102033397 279.3787860344412 334.7681864291388 298.9089496541981" />
<polygon stroke="none" fill="#ff0000" fill-opacity="1.0" points=" 334.7681864291388 298.9089496541981 579.3610102033397 279.3787860344412 334.7681864291388 298.9089496541981" />
<polygon stroke="none" fill="#ff0000" fill-opacity="1.0" points=" 334.7681864291388 298.9089496541981 334.7681864291388 298.9089496541981 338.93996757356524 316.65146306805326" />
<polygon stroke="none" fill="#ff0000" fill-opacity="1.0" points=" 338.93996757356524 316.65146306805326 334.7681864291388 298.9089496541981 338.93996757356524 316.65146306805326" />
<polygon stroke="none" fill="#cec7ce" fill-opacity="1.0" points=" 579.3610102033397 279.3787860344412 334.7681864291388 298.9089496541981 338.93996757356524 316.65146306805326" />
<polygon stroke="none" fill="#ff0000" fill-opacity="1.0" points=" 236.2780471266172 358.6893322070404 236.2780471266172 358.6893322070404 250.01304250053371 370.6365724459797" />
<polygon stroke="none" fill="#ff0000" fill-opacity="1.0" points=" 250.01304250053371 370.6365724459797 236.2780471266172 358.6893322070404 250.01304250053371 370.6365724459797" />
<polygon stroke="none" fill="#bab3ba" fill-opacity="1.0" points=" 140.24878786247993 442.8797496825928 250.01304250053371 370.6365724459797 236.2780471266172 358.6893322070404" />
<polygon stroke="none" fill="#ff0000" fill-opacity="1.0" points=" 337.4201600812419 334.8517618394238 337.4201600812419 334.8517618394238 338.93996757356524 316.65146306805326" />
<polygon stroke="none" fill="#ff0000" fill-opacity="1.0" points=" 338.93996757356524 316.65146306805326 337.4201600812419 334.8517618394238 338.93996757356524 316.65146306805326" />
<polygon stroke="none" fill="#cbc4cb" fill-opacity="1.0" points=" 579.3610102033397 279.3787860344412 338.93996757356524 316.65146306805326 554.8407363085335 401.90176769226713" />
<polygon stroke="none" fill="#cac3ca" fill-opacity="1.0" points=" 554.8407363085335 401.90176769226713 338.93996757356524 316.65146306805326 337.4201600812419 334.8517618394238" />
<polygon stroke="none" fill="#ff0000" fill-opacity="1.0" points=" 250.01304250053371 370.6365724459797 250.01304250053371 370.6365724459797 266.7948238822122 377.7327660060613" />
<polygon stroke="none" fill="#ff0000" fill-opacity="1.0" points=" 266.7948238822122 377.7327660060613 250.01304250053371 370.6365724459797 266.7948238822122 377.7327660060613" />
<polygon stroke="none" fill="#bdb6bd" fill-opacity="1.0" points=" 194.7060108868961 495.1215030393346 266.7948238822122 377.7327660060613 250.01304250053371 370.6365724459797" />
<polygon stroke="none" fill="#bcb5bc" fill-opacity="1.0" points=" 194.7060108868961 495.1215030393346 250.01304250053371 370.6365724459797 167.69225690932595 473.2470708074703" />
<polygon stroke="none" fill="#bbb4bb" fill-opacity="1.0" points=" 167.69225690932595 473.2470708074703 250.01304250053371 370.6365724459797 140.24878786247993 442.8797496825928" />
<polygon stroke="none" fill="#ff0000" fill-opacity="1.0" points=" 330.3446677913172 351.71899537332524 330.3446677913172 351.71899537332524 337.4201600812419 334.8517618394238" />
<polygon stroke="none" fill="#ff0000" fill-opacity="1.0" points=" 337.4201600812419 334.8517618394238 330.3446677913172 351.71899537332524 337.4201600812419 334.8517618394238" />
<polygon stroke="none" fill="#c8c1c8" fill-opacity="1.0" points=" 554.8407363085335 401.90176769226713 337.4201600812419 334.8517618394238 502.8099867017951 472.4141495798459" />
<polygon stroke="none" fill="#c6bfc6" fill-opacity="1.0" points=" 502.8099867017951 472.4141495798459 337.4201600812419 334.8517618394238 330.3446677913172 351.71899537332524" />
<polygon stroke="none" fill="#ff0000" fill-opacity="1.0" points=" 266.7948238822122 377.7327660060613 266.7948238822122 377.7327660060613 284.9758764311506 379.268130883298" />
<polygon stroke="none" fill="#ff0000" fill-opacity="1.0" points=" 284.9758764311506 379.268130883298 266.7948238822122 377.7327660060613 284.9758764311506 379.268130883298" />
<polygon stroke="none" fill="#bfb8bf" fill-opacity="1.0" points=" 247.59824171099544 523.1025099934207 284.9758764311506 379.268130883298 266.7948238822122 377.7327660060613" />
<polygon stroke="none" fill="#bfb8bf" fill-opacity="1.0" points=" 221.2036570874476 511.2172032600108 247.59824171099544 523.1025099934207 266.7948238822122 377.7327660060613" />
<polygon stroke="none" fill="#beb7be" fill-opacity="1.0" points=" 221.2036570874476 511.2172032600108 266.7948238822122 377.7327660060613 194.7060108868961 495.1215030393346" />
<polygon stroke="none" fill="#ff0000" fill-opacity="1.0" points=" 167.69225690932595 473.2470708074703 167.69225690932595 473.2470708074703 140.24878786247993 442.8797496825928" />
<polygon stroke="none" fill="#ff0000" fill-opacity="1.0" points=" 140.24878786247993 442.8797496825928 167.69225690932595 473.2470708074703 140.24878786247993 442.8797496825928" />
<polygon stroke="none" fill="#ff0000" fill-opacity="1.0" points=" 330.3446677913172 351.71899537332524 330.3446677913172 351.71899537332524 318.40116461805985 365.58695540251074" />
<polygon stroke="none" fill="#ff0000" fill-opacity="1.0" points=" 318.40116461805985 365.58695540251074 330.3446677913172 351.71899537332524 318.40116461805985 365.58695540251074" />
<polygon stroke="none" fill="#cdc6cd" fill-opacity="1.0" points=" 318.40116461805985 365.58695540251074 451.17690887582313 509.67963627472125 330.3446677913172 351.71899537332524" />
<polygon stroke="none" fill="#cdc6cd" fill-opacity="1.0" points=" 330.3446677913172 351.71899537332524 451.17690887582313 509.67963627472125 502.8099867017951 472.4141495798459" />
<polygon stroke="none" fill="#ff0000" fill-opacity="1.0" points=" 284.9758764311506 379.268130883298 284.9758764311506 379.268130883298 302.76369639424445 375.0829747779232" />
<polygon stroke="none" fill="#ff0000" fill-opacity="1.0" points=" 302.76369639424445 375.0829747779232 284.9758764311506 379.268130883298 302.76369639424445 375.0829747779232" />
<polygon stroke="none" fill="#c2bbc2" fill-opacity="1.0" points=" 284.9758764311506 379.268130883298 302.7557719704282 537.0275469275693 302.76369639424445 375.0829747779232" />
<polygon stroke="none" fill="#c1bac1" fill-opacity="1.0" points=" 274.5209876067103 531.610469078412 302.7557719704282 537.0275469275693 284.9758764311506 379.268130883298" />
<polygon stroke="none" fill="#c0b9c0" fill-opacity="1.0" points=" 247.59824171099544 523.1025099934207 274.5209876067103 531.610469078412 284.9758764311506 379.268130883298" />
<polygon stroke="none" fill="#ff0000" fill-opacity="1.0" points=" 302.76369639424445 375.0829747779232 302.76369639424445 375.0829747779232 318.40116461805985 365.58695540251074" />
<polygon stroke="none" fill="#ff0000" fill-opacity="1.0" points=" 318.40116461805985 365.58695540251074 302.76369639424445 375.0829747779232 318.40116461805985 365.58695540251074" />
<polygon stroke="none" fill="#ccc5cc" fill-opacity="1.0" points=" 406.0407390588942 528.5057478051474 451.17690887582313 509.67963627472125 318.40116461805985 365.58695540251074" />
<polygon stroke="none" fill="#c9c2c9" fill-opacity="1.0" points=" 367.21355719050774 536.9519966141761 406.0407390588942 528.5057478051474 318.40116461805985 365.58695540251074" />
<polygon stroke="none" fill="#c4bdc4" fill-opacity="1.0" points=" 302.76369639424445 375.0829747779232 367.21355719050774 536.9519966141761 318.40116461805985 365.58695540251074" />
<polygon stroke="none" fill="#c5bec5" fill-opacity="1.0" points=" 333.2595037461583 539.1148517053431 367.21355719050774 536.9519966141761 302.76369639424445 375.0829747779232" />
<polygon stroke="none" fill="#c3bcc3" fill-opacity="1.0" points=" 302.7557719704282 537.0275469275693 333.2595037461583 539.1148517053431 302.76369639424445 375.0829747779232" />
<polygon stroke="none" fill="#ff0000" fill-opacity="1.0" points=" 194.7060108868961 495.1215030393346 194.7060108868961 495.1215030393346 167.69225690932595 473.2470708074703" />
<polygon stroke="none" fill="#ff0000" fill-opacity="1.0" points=" 167.69225690932595 473.2470708074703 194.7060108868961 495.1215030393346 167.69225690932595 473.2470708074703" />
<polygon stroke="none" fill="#ff0000" fill-opacity="1.0" points=" 554.8407363085335 401.90176769226713 554.8407363085335 401.90176769226713 579.3610102033397 279.3787860344412" />
<polygon stroke="none" fill="#ff0000" fill-opacity="1.0" points=" 579.3610102033397 279.3787860344412 554.8407363085335 401.90176769226713 579.3610102033397 279.3787860344412" />
<polygon stroke="none" fill="#ff0000" fill-opacity="1.0" points=" 221.2036570874476 511.2172032600108 221.2036570874476 511.2172032600108 194.7060108868961 495.1215030393346" />
<polygon stroke="none" fill="#ff0000" fill-opacity="1.0" points=" 194.7060108868961 495.1215030393346 221.2036570874476 511.2172032600108 194.7060108868961 495.1215030393346" />
<polygon stroke="none" fill="#ff0000" fill-opacity="1.0" points=" 221.2036570874476 511.2172032600108 221.2036570874476 511.2172032600108 247.59824171099544 523.1025099934207" />
<polygon stroke="none" fill="#ff0000" fill-opacity="1.0" points=" 247.59824171099544 523.1025099934207 221.2036570874476 511.2172032600108 247.59824171099544 523.1025099934207" />
<polygon stroke="none" fill="#ff0000" fill-opacity="1.0" points=" 247.59824171099544 523.1025099934207 247.59824171099544 523.1025099934207 274.5209876067103 531.610469078412" />
<polygon stroke="none" fill="#ff0000" fill-opacity="1.0" points=" 274.5209876067103 531.610469078412 247.59824171099544 523.1025099934207 274.5209876067103 531.610469078412" />
<polygon stroke="none" fill="#ff0000" fill-opacity="1.0" points=" 274.5209876067103 531.610469078412 274.5209876067103 531.610469078412 302.7557719704282 537.0275469275693" />
<polygon stroke="none" fill="#ff0000" fill-opacity="1.0" points=" 302.7557719704282 537.0275469275693 274.5209876067103 531.610469078412 302.7557719704282 537.0275469275693" />
<polygon stroke="none" fill="#ff0000" fill-opacity="1.0" points=" 502.8099867017951 472.4141495798459 502.8099867017951 472.4141495798459 554.8407363085335 401.90176769226713" />
<polygon stroke="none" fill="#ff0000" fill-opacity="1.0" points=" 554.8407363085335 401.90176769226713 502.8099867017951 472.4141495798459 554.8407363085335 401.90176769226713" />
<polygon stroke="none" fill="#ff0000" fill-opacity="1.0" points=" 302.7557719704282 537.0275469275693 302.7557719704282 537.0275469275693 333.2595037461583 539.1148517053431" />
<polygon stroke="none" fill="#ff0000" fill-opacity="1.0" points=" 333.2595037461583 539.1148517053431 302.7557719704282 537.0275469275693 333.2595037461583 539.1148517053431" />
<polygon stroke="none" fill="#ff0000" fill-opacity="1.0" points=" 367.21355719050774 536.9519966141761 367.21355719050774 536.9519966141761 333.2595037461583 539.1148517053431" />
<polygon stroke="none" fill="#ff0000" fill-opacity="1.0" points=" 333.2595037461583 539.1148517053431 367.21355719050774 536.9519966141761 333.2595037461583 539.1148517053431" />
<polygon stroke="none" fill="#ff0000" fill-opacity="1.0" points=" 406.0407390588942 528.5057478051474 406.0407390588942 528.5057478051474 367.21355719050774 536.9519966141761" />
<polygon stroke="none" fill="#ff0000" fill-opacity="1.0" points=" 367.21355719050774 536.9519966141761 406.0407390588942 528.5057478051474 367.21355719050774 536.9519966141761" />
<polygon stroke="none" fill="#ff0000" fill-opacity="1.0" points=" 502.8099867017951 472.4141495798459 502.8099867017951 472.4141495798459 451.17690887582313 509.67963627472125" />
<polygon stroke="none" fill="#ff0000" fill-opacity="1.0" points=" 451.17690887582313 509.67963627472125 502.8099867017951 472.4141495798459 451.17690887582313 509.67963627472125" />
<polygon stroke="none" fill="#ff0000" fill-opacity="1.0" points=" 406.0407390588942 528.5057478051474 406.0407390588942 528.5057478051474 451.17690887582313 509.67963627472125" />
<polygon stroke="none" fill="#ff0000" fill-opacity="1.0" points=" 451.17690887582313 509.67963627472125 406.0407390588942 528.5057478051474 451.17690887582313 509.67963627472125" />
</svg>
