<?xml version="1.0" encoding="UTF-8" standalone="no"?>
<!-- Created with Inkscape (http://www.inkscape.org/) -->

<svg
   xmlns:dc="http://purl.org/dc/elements/1.1/"
   xmlns:cc="http://creativecommons.org/ns#"
   xmlns:rdf="http://www.w3.org/1999/02/22-rdf-syntax-ns#"
   xmlns:svg="http://www.w3.org/2000/svg"
   xmlns="http://www.w3.org/2000/svg"
   xmlns:sodipodi="http://sodipodi.sourceforge.net/DTD/sodipodi-0.dtd"
   xmlns:inkscape="http://www.inkscape.org/namespaces/inkscape"
   width="327.52878"
   height="256.67017"
   id="svg2"
   version="1.1"
   inkscape:version="0.48.5 r10040"
   sodipodi:docname="notation_triangle.svg">
  <sodipodi:namedview
     id="base"
     pagecolor="#ffffff"
     bordercolor="#666666"
     borderopacity="1.0"
     inkscape:pageopacity="0.0"
     inkscape:pageshadow="2"
     inkscape:zoom="1.8646017"
     inkscape:cx="158.45376"
     inkscape:cy="124.56345"
     inkscape:document-units="px"
     inkscape:current-layer="layer1"
     showgrid="false"
     inkscape:window-width="1440"
     inkscape:window-height="851"
     inkscape:window-x="0"
     inkscape:window-y="0"
     inkscape:window-maximized="1"
     fit-margin-top="0"
     fit-margin-left="0"
     fit-margin-right="0"
     fit-margin-bottom="0" />
  <defs
     id="defs4">
    <inkscape:perspective
       sodipodi:type="inkscape:persp3d"
       inkscape:vp_x="68.571429 : 627.60966 : 1"
       inkscape:vp_y="0 : 1000 : 0"
       inkscape:vp_z="584.09448 : 521.89538 : 1"
       inkscape:persp3d-origin="372.04724 : 350.78739 : 1"
       id="perspective3765" />
  </defs>
  <metadata
     id="metadata7">
    <rdf:RDF>
      <cc:Work
         rdf:about="">
        <dc:format>image/svg+xml</dc:format>
        <dc:type
           rdf:resource="http://purl.org/dc/dcmitype/StillImage" />
        <dc:title></dc:title>
      </cc:Work>
    </rdf:RDF>
  </metadata>
  <g
     inkscape:label="Ebene 1"
     inkscape:groupmode="layer"
     id="layer1"
     transform="translate(-37.795196,-23.61632)">
    <path
       style="fill:none;stroke:#000000;stroke-width:2;stroke-linecap:butt;stroke-linejoin:miter;stroke-miterlimit:4;stroke-opacity:1;stroke-dasharray:none"
       d="M 55.714286,230.93361 270,58.076468 344.28571,253.79075 z"
       id="path2985"
       inkscape:connector-curvature="0" />
    <path
       sodipodi:type="arc"
       style="fill:none;stroke:#000000;stroke-width:1;stroke-linecap:round;stroke-linejoin:round;stroke-miterlimit:4;stroke-opacity:1;stroke-dasharray:none;stroke-dashoffset:0"
       id="path2989"
       sodipodi:cx="195"
       sodipodi:cy="437.36218"
       sodipodi:rx="79.285713"
       sodipodi:ry="79.285713"
       d="m 256.72769,387.6036 c 12.71743,15.77652 18.91147,35.82368 17.31005,56.02436"
       transform="translate(-138.99729,-206.63778)"
       sodipodi:start="5.6047369"
       sodipodi:end="6.3622956"
       sodipodi:open="true" />
    <path
       sodipodi:type="arc"
       style="fill:none;stroke:#000000;stroke-width:1;stroke-linecap:round;stroke-linejoin:round;stroke-miterlimit:4;stroke-opacity:1;stroke-dasharray:none;stroke-dashoffset:0"
       id="path2989-9"
       sodipodi:cx="195"
       sodipodi:cy="437.36218"
       sodipodi:rx="79.285713"
       sodipodi:ry="79.285713"
       d="m 115.97623,430.92261 c 2.48785,-30.5299 22.33932,-56.89574 50.9921,-67.72544"
       transform="translate(149.0748,-183.4628)"
       sodipodi:start="3.222902"
       sodipodi:end="4.3510227"
       sodipodi:open="true" />
    <path
       sodipodi:type="arc"
       style="fill:none;stroke:#000000;stroke-width:1;stroke-linecap:round;stroke-linejoin:round;stroke-miterlimit:4;stroke-opacity:1;stroke-dasharray:none;stroke-dashoffset:0"
       id="path2989-9-2"
       sodipodi:cx="195"
       sodipodi:cy="437.36218"
       sodipodi:rx="79.285713"
       sodipodi:ry="79.285713"
       d="m 223.04264,511.52305 c -31.91119,12.06667 -67.96356,2.36673 -89.5118,-24.08326"
       transform="translate(74.894406,-379.44195)"
       sodipodi:start="1.2092821"
       sodipodi:end="2.4579653"
       sodipodi:open="true" />
    <path
       sodipodi:type="arc"
       style="fill:#000000;fill-opacity:1;stroke:#000000;stroke-width:1;stroke-linecap:round;stroke-linejoin:round;stroke-miterlimit:4;stroke-opacity:1;stroke-dasharray:none;stroke-dashoffset:0"
       id="path3821"
       sodipodi:cx="89.307076"
       sodipodi:cy="105.70719"
       sodipodi:rx="27.06275"
       sodipodi:ry="45.46542"
       d="M 68.097458,133.94642 C 58.81407,114.26732 60.784265,85.671127 72.498014,70.075034 84.211762,54.478942 101.2333,57.788871 110.51669,77.467968 c 9.28339,19.679097 7.3132,48.275292 -4.40055,63.871382 -11.602388,15.44782 -28.439953,12.36649 -37.790456,-6.91577 l 20.981392,-28.71639 z"
       sodipodi:start="2.4714289"
       sodipodi:end="8.7411506"
       transform="matrix(0.09107605,0,0,0.05421209,48.406408,224.59238)" />
    <path
       sodipodi:type="arc"
       style="fill:#000000;fill-opacity:1;stroke:#000000;stroke-width:1;stroke-linecap:round;stroke-linejoin:round;stroke-miterlimit:4;stroke-opacity:1;stroke-dasharray:none;stroke-dashoffset:0"
       id="path3821-9"
       sodipodi:cx="89.307076"
       sodipodi:cy="105.70719"
       sodipodi:rx="27.06275"
       sodipodi:ry="45.46542"
       d="M 68.097458,133.94642 C 58.81407,114.26732 60.784265,85.671127 72.498014,70.075034 84.211762,54.478942 101.2333,57.788871 110.51669,77.467968 c 9.28339,19.679097 7.3132,48.275292 -4.40055,63.871382 -11.602388,15.44782 -28.439953,12.36649 -37.790456,-6.91577 l 20.981392,-28.71639 z"
       sodipodi:start="2.4714289"
       sodipodi:end="8.7411506"
       transform="matrix(0.09107605,0,0,0.05421209,335.02193,247.7392)" />
    <path
       sodipodi:type="arc"
       style="fill:#000000;fill-opacity:1;stroke:#000000;stroke-width:1;stroke-linecap:round;stroke-linejoin:round;stroke-miterlimit:4;stroke-opacity:1;stroke-dasharray:none;stroke-dashoffset:0"
       id="path3821-9-9"
       sodipodi:cx="89.307076"
       sodipodi:cy="105.70719"
       sodipodi:rx="27.06275"
       sodipodi:ry="45.46542"
       d="M 68.097458,133.94642 C 58.81407,114.26732 60.784265,85.671127 72.498014,70.075034 84.211762,54.478942 101.2333,57.788871 110.51669,77.467968 c 9.28339,19.679097 7.3132,48.275292 -4.40055,63.871382 -11.602388,15.44782 -28.439953,12.36649 -37.790456,-6.91577 l 20.981392,-28.71639 z"
       sodipodi:start="2.4714289"
       sodipodi:end="8.7411506"
       transform="matrix(0.09107605,0,0,0.05421209,261.95251,52.346146)" />
    <text
       xml:space="preserve"
       x="42.759148"
       y="220.45326"
       id="text3859"><tspan
         sodipodi:role="line"
         id="tspan3861"
         x="0"
         y="0"
         style="font-size:14px"><tspan
           style="font-size:65.00091553%;baseline-shift:sub"
           id="tspan3871" /></tspan></text>
    <g
       transform="matrix(1.9932035,0,0,1.9932035,82.783341,-148.18766)"
       id="g3192">
      <g
         style="font-style:normal;font-variant:normal;font-weight:normal;font-stretch:normal;letter-spacing:normal;word-spacing:normal;text-anchor:start;fill:none;stroke:#000000;stroke-linecap:butt;stroke-linejoin:miter;stroke-miterlimit:10.43299961;stroke-opacity:1;stroke-dasharray:none;stroke-dashoffset:0"
         id="content"
         transform="matrix(0.33535034,0,0,-0.33535034,-58.68631,235.67573)"
         xml:space="preserve"
         stroke-miterlimit="10.433"
         font-style="normal"
         font-variant="normal"
         font-weight="normal"
         font-stretch="normal"
         font-size-adjust="none"
         letter-spacing="normal"
         word-spacing="normal" />    </g>
    <g
       id="g4512"
       transform="matrix(1.5153084,0,0,1.5153084,90.410644,-35.474812)">
      <g
         word-spacing="normal"
         letter-spacing="normal"
         font-size-adjust="none"
         font-stretch="normal"
         font-weight="normal"
         font-variant="normal"
         font-style="normal"
         stroke-miterlimit="10.433"
         xml:space="preserve"
         transform="matrix(0.34943034,0,0,-0.34943034,-61.15031,241.26093)"
         id="g4514"
         style="font-style:normal;font-variant:normal;font-weight:normal;font-stretch:normal;letter-spacing:normal;word-spacing:normal;text-anchor:start;fill:none;stroke:#000000;stroke-linecap:butt;stroke-linejoin:miter;stroke-miterlimit:10.43299961;stroke-opacity:1;stroke-dasharray:none;stroke-dashoffset:0"><path
           id="path4516"
           d="m 479.29,417.96 -0.01,0.37 -0.01,0.35 -0.02,0.35 -0.02,0.34 -0.06,0.65 -0.09,0.63 -0.11,0.59 -0.14,0.57 -0.15,0.54 -0.18,0.51 -0.19,0.49 -0.21,0.45 -0.23,0.44 -0.25,0.4 -0.26,0.38 -0.27,0.36 -0.29,0.33 -0.3,0.31 -0.31,0.29 -0.31,0.26 -0.33,0.24 -0.34,0.22 -0.34,0.2 -0.35,0.18 -0.35,0.16 -0.36,0.14 -0.35,0.12 -0.36,0.11 -0.37,0.09 -0.36,0.06 -0.36,0.06 -0.35,0.04 -0.35,0.02 -0.35,0 -0.05,-1.09 c 4.94,0 4.94,-6.53 4.94,-10.41 0,-1.84 0,-4.73 0.09,-5.57 h 0 c -4.37,-3.85 -8.22,-4.39 -10.2,-4.39 -3,0 -4.49,2.25 -4.49,5.43 0,2.44 1.3,7.82 2.89,10.36 2.33,3.64 5.04,4.58 6.77,4.58 l 0.05,1.09 c -6.82,0 -13.39,-7.12 -13.39,-14.14 0,-4.64 2.98,-8.42 8.06,-8.42 3.14,0 6.73,1.14 10.51,4.19 0.66,-2.64 2.3,-4.19 4.54,-4.19 2.64,0 4.18,2.74 4.18,3.53 0,0.36 -0.29,0.5 -0.59,0.5 -0.36,0 -0.5,-0.14 -0.66,-0.5 -0.89,-2.43 -2.68,-2.43 -2.78,-2.43 -1.54,0 -1.54,3.89 -1.54,5.07 0,1.05 0,1.16 0.5,1.75 4.68,5.88 5.73,11.66 5.73,11.71 0,0.11 -0.06,0.5 -0.61,0.5 -0.5,0 -0.5,-0.14 -0.75,-1.05 -0.89,-3.14 -2.53,-6.92 -4.87,-9.86 z"
           inkscape:connector-curvature="0"
           style="fill:#000000;stroke-width:0" /><path
           id="path4518"
           d="m 498.59,447.34 0,0 0,0.01 0,0 0,0.01 0,0 0.01,0.01 0,0 0,0.01 0,0.01 0.01,0 0,0.02 0.01,0.02 0,0.02 0.01,0.02 0,0.02 0.01,0.02 0,0.02 0.01,0.02 0.01,0.03 0.01,0.04 0.01,0.05 0.01,0.02 0,0.03 0.01,0.02 0,0.02 0.01,0.02 0,0.02 0,0.01 0.01,0.02 0,0.01 0,0 0,0.01 0,0.01 0,0 0,0.01 0.01,0 0,0.01 0,0 0,0 0,0.01 0,0 c 0,0.18 -0.14,0.5 -0.57,0.5 -0.68,0 -3.57,-0.28 -4.45,-0.36 -0.28,-0.03 -0.76,-0.07 -0.76,-0.8 0,-0.48 0.48,-0.48 0.9,-0.48 1.67,0 1.67,-0.25 1.67,-0.54 0,-0.23 -0.07,-0.45 -0.14,-0.76 l -4.92,-19.72 c -0.17,-0.62 -0.17,-0.69 -0.17,-0.77 0,-0.51 0.42,-1.1 1.19,-1.1 0.93,0 1.39,0.68 1.61,1.45 0.06,0.14 1.56,6.28 1.7,6.76 2.47,-0.25 4.45,-1.04 4.45,-2.86 0,-0.17 0,-0.34 -0.06,-0.68 -0.14,-0.53 -0.14,-0.71 -0.14,-1.1 0,-2.47 2.01,-3.57 3.69,-3.57 3.39,0 4.43,5.29 4.43,5.32 0,0.46 -0.45,0.46 -0.56,0.46 -0.48,0 -0.53,-0.18 -0.7,-0.85 -0.41,-1.5 -1.36,-3.97 -3.06,-3.97 -0.94,0 -1.22,0.88 -1.22,1.82 0,0.59 0,0.65 0.2,1.56 0.05,0.11 0.19,0.7 0.19,1.09 0,3.1 -4.19,3.58 -5.66,3.69 1.02,0.63 2.3,1.78 2.89,2.3 1.78,1.67 3.53,3.31 5.47,3.31 0.42,0 0.88,-0.11 1.16,-0.45 -1.5,-0.25 -1.82,-1.43 -1.82,-1.96 0,-0.76 0.6,-1.28 1.4,-1.28 0.95,0 1.98,0.77 1.98,2.22 0,1.16 -0.83,2.44 -2.67,2.44 -1.99,0 -3.8,-1.42 -5.58,-3.06 -1.47,-1.39 -2.61,-2.47 -4.05,-3.07 z"
           inkscape:connector-curvature="0"
           style="fill:#000000;stroke-width:0" /><path
           id="path4520"
           d="m 499.88,415.06 0,0.07 -0.01,0.07 0,0.06 -0.01,0.07 -0.02,0.06 -0.01,0.06 -0.02,0.06 -0.02,0.05 -0.03,0.06 -0.02,0.05 -0.03,0.05 -0.03,0.05 -0.03,0.05 -0.04,0.04 -0.04,0.05 -0.04,0.04 -0.04,0.04 -0.04,0.03 -0.05,0.04 -0.05,0.03 -0.04,0.03 -0.06,0.03 -0.05,0.02 -0.05,0.02 -0.06,0.02 -0.06,0.02 -0.06,0.02 -0.06,0.01 -0.06,0.01 -0.06,0.01 -0.06,0 -0.07,0 c -0.97,0 -1.73,-0.9 -1.73,-1.67 0,-0.63 0.4,-1.22 1.25,-1.22 0.87,0 1.7,0.84 1.7,1.67 z"
           inkscape:connector-curvature="0"
           style="fill:#000000;stroke-width:0" /><path
           id="path4522"
           d="m 494.8,401.97 -0.02,-0.07 -0.03,-0.07 -0.03,-0.07 -0.03,-0.08 -0.03,-0.09 -0.03,-0.09 -0.04,-0.09 -0.04,-0.09 -0.03,-0.1 -0.04,-0.1 -0.04,-0.11 -0.04,-0.11 -0.09,-0.21 -0.09,-0.23 -0.08,-0.23 -0.09,-0.23 -0.09,-0.23 -0.08,-0.22 -0.09,-0.22 -0.04,-0.11 -0.04,-0.11 -0.04,-0.1 -0.03,-0.1 -0.04,-0.1 -0.03,-0.09 c -0.35,-0.91 -0.83,-2.16 -0.83,-2.78 0,-1.61 1.25,-2.92 3.09,-2.92 3.49,0 5.06,4.76 5.06,5.32 0,0.46 -0.45,0.46 -0.73,0.46 -0.62,0 -0.66,-0.11 -0.84,-0.74 -0.46,-1.67 -1.6,-4.08 -3.38,-4.08 -0.83,0 -0.83,0.85 -0.83,1.19 0,0.83 0.6,2.33 1.05,3.45 0.38,1.08 2.13,5.5 2.3,6.04 0.2,0.57 0.2,0.68 0.2,1.14 0,1.56 -1.22,2.92 -3.14,2.92 -3.41,0 -5.02,-4.7 -5.02,-5.33 0,-0.45 0.46,-0.45 0.74,-0.45 0.42,0 0.62,0 0.73,0.45 1.14,4.05 2.83,4.36 3.46,4.36 0.4,0 0.86,-0.11 0.86,-1.19 0,-0.76 -0.27,-1.45 -0.55,-2.18 z"
           inkscape:connector-curvature="0"
           style="fill:#000000;stroke-width:0" /><path
           id="path4524"
           d="m 514.16,415.06 -0.01,0.08 0,0.08 -0.01,0.08 -0.01,0.07 -0.02,0.06 -0.02,0.07 -0.02,0.06 -0.03,0.06 -0.03,0.06 -0.03,0.05 -0.03,0.05 -0.04,0.05 -0.03,0.05 -0.04,0.04 -0.04,0.04 -0.05,0.04 -0.04,0.04 -0.05,0.03 -0.05,0.03 -0.05,0.03 -0.05,0.02 -0.05,0.02 -0.05,0.03 -0.05,0.01 -0.05,0.02 -0.06,0.01 -0.05,0.02 -0.05,0 -0.06,0.01 -0.05,0.01 -0.05,0 -0.05,0 c -0.99,0 -1.75,-0.94 -1.75,-1.67 0,-0.59 0.42,-1.22 1.25,-1.22 0.87,0 1.72,0.81 1.72,1.67 z"
           inkscape:connector-curvature="0"
           style="fill:#000000;stroke-width:0" /><path
           id="path4526"
           d="m 506.94,391.58 -0.05,-0.18 -0.06,-0.18 -0.06,-0.19 -0.07,-0.19 -0.07,-0.18 -0.09,-0.19 -0.08,-0.19 -0.1,-0.18 -0.1,-0.19 -0.1,-0.18 -0.12,-0.19 -0.11,-0.17 -0.12,-0.18 -0.13,-0.17 -0.14,-0.17 -0.13,-0.16 -0.15,-0.15 -0.14,-0.15 -0.16,-0.15 -0.15,-0.13 -0.17,-0.13 -0.16,-0.12 -0.17,-0.11 -0.18,-0.11 -0.17,-0.09 -0.19,-0.08 -0.18,-0.07 -0.19,-0.06 -0.19,-0.04 -0.2,-0.04 -0.2,-0.02 -0.2,-0.01 c -0.38,0 -0.86,0.1 -1.17,0.24 0.65,0.39 0.9,1.15 0.9,1.5 0,0.7 -0.5,1.19 -1.26,1.19 -0.94,0 -1.74,-0.8 -1.74,-1.85 0,-1.22 1.25,-2.06 3.27,-2.06 2.94,0 6.14,2.16 6.91,5.3 l 3.17,12.75 c 0.14,0.56 0.17,0.87 0.17,1.18 0,1.82 -1.42,3.24 -3.52,3.24 -3.76,0 -6,-4.77 -6,-5.36 0,-0.42 0.49,-0.42 0.74,-0.42 0.56,0 0.59,0.08 0.8,0.56 1.43,3.34 3.24,4.25 4.35,4.25 0.94,0 1.16,-0.77 1.16,-1.67 0,-0.39 0,-0.63 -0.14,-1.19 z"
           inkscape:connector-curvature="0"
           style="fill:#000000;stroke-width:0" /></g>    </g>
    <g
       id="g4638"
       transform="matrix(1.4910592,0,0,1.4910592,-53.97846,69.950021)">
      <g
         id="g4640"
         transform="matrix(0.34943034,0,0,-0.34943034,-61.15031,241.26093)"
         xml:space="preserve"
         stroke-miterlimit="10.433"
         font-style="normal"
         font-variant="normal"
         font-weight="normal"
         font-stretch="normal"
         font-size-adjust="none"
         letter-spacing="normal"
         word-spacing="normal"
         style="font-style:normal;font-variant:normal;font-weight:normal;font-stretch:normal;letter-spacing:normal;word-spacing:normal;text-anchor:start;fill:none;stroke:#000000;stroke-linecap:butt;stroke-linejoin:miter;stroke-miterlimit:10.43299961;stroke-opacity:1;stroke-dasharray:none;stroke-dashoffset:0"><path
           d="m 479.29,417.96 -0.01,0.37 -0.01,0.35 -0.02,0.35 -0.02,0.34 -0.06,0.65 -0.09,0.63 -0.11,0.59 -0.14,0.57 -0.15,0.54 -0.18,0.51 -0.19,0.49 -0.21,0.45 -0.23,0.44 -0.25,0.4 -0.26,0.38 -0.27,0.36 -0.29,0.33 -0.3,0.31 -0.31,0.29 -0.31,0.26 -0.33,0.24 -0.34,0.22 -0.34,0.2 -0.35,0.18 -0.35,0.16 -0.36,0.14 -0.35,0.12 -0.36,0.11 -0.37,0.09 -0.36,0.06 -0.36,0.06 -0.35,0.04 -0.35,0.02 -0.35,0 -0.05,-1.09 c 4.94,0 4.94,-6.53 4.94,-10.41 0,-1.84 0,-4.73 0.09,-5.57 h 0 c -4.37,-3.85 -8.22,-4.39 -10.2,-4.39 -3,0 -4.49,2.25 -4.49,5.43 0,2.44 1.3,7.82 2.89,10.36 2.33,3.64 5.04,4.58 6.77,4.58 l 0.05,1.09 c -6.82,0 -13.39,-7.12 -13.39,-14.14 0,-4.64 2.98,-8.42 8.06,-8.42 3.14,0 6.73,1.14 10.51,4.19 0.66,-2.64 2.3,-4.19 4.54,-4.19 2.64,0 4.18,2.74 4.18,3.53 0,0.36 -0.29,0.5 -0.59,0.5 -0.36,0 -0.5,-0.14 -0.66,-0.5 -0.89,-2.43 -2.68,-2.43 -2.78,-2.43 -1.54,0 -1.54,3.89 -1.54,5.07 0,1.05 0,1.16 0.5,1.75 4.68,5.88 5.73,11.66 5.73,11.71 0,0.11 -0.06,0.5 -0.61,0.5 -0.5,0 -0.5,-0.14 -0.75,-1.05 -0.89,-3.14 -2.53,-6.92 -4.87,-9.86 z"
           id="path4642"
           inkscape:connector-curvature="0"
           style="fill:#000000;stroke-width:0" /><path
           d="m 498.98,445.98 0,0.05 -0.01,0.06 0,0.05 -0.01,0.05 -0.01,0.06 -0.02,0.06 -0.02,0.05 -0.01,0.06 -0.03,0.05 -0.02,0.06 -0.03,0.06 -0.03,0.05 -0.03,0.05 -0.04,0.06 -0.04,0.05 -0.04,0.05 -0.04,0.05 -0.05,0.05 -0.05,0.04 -0.05,0.04 -0.06,0.04 -0.06,0.04 -0.06,0.04 -0.06,0.03 -0.07,0.03 -0.07,0.02 -0.08,0.03 -0.08,0.01 -0.08,0.02 -0.08,0.01 -0.09,0.01 -0.09,0 c -0.94,0 -1.95,-0.91 -1.95,-1.92 0,-0.6 0.45,-1.33 1.4,-1.33 1,0 1.96,0.98 1.96,1.92 z"
           id="path4644"
           inkscape:connector-curvature="0"
           style="fill:#000000;stroke-width:0" /><path
           d="m 491.87,428.28 -0.06,-0.17 -0.05,-0.17 -0.03,-0.08 -0.02,-0.09 -0.03,-0.09 -0.02,-0.08 -0.02,-0.09 -0.02,-0.1 -0.02,-0.09 -0.02,-0.1 -0.01,-0.09 0,-0.05 -0.01,-0.06 0,-0.05 0,-0.05 0,-0.06 -0.01,-0.05 c 0,-1.64 1.4,-2.95 3.3,-2.95 3.49,0 5.03,4.79 5.03,5.32 0,0.46 -0.45,0.46 -0.56,0.46 -0.48,0 -0.53,-0.21 -0.67,-0.6 -0.8,-2.78 -2.33,-4.22 -3.69,-4.22 -0.7,0 -0.87,0.46 -0.87,1.22 0,0.8 0.25,1.47 0.56,2.24 0.34,0.93 0.73,1.87 1.11,2.78 0.31,0.84 1.58,4.01 1.72,4.44 0.09,0.34 0.2,0.76 0.2,1.11 0,1.64 -1.39,2.95 -3.31,2.95 -3.46,0 -5.05,-4.74 -5.05,-5.33 0,-0.45 0.48,-0.45 0.59,-0.45 0.49,0 0.52,0.17 0.63,0.56 0.91,3 2.44,4.25 3.72,4.25 0.56,0 0.87,-0.28 0.87,-1.22 0,-0.8 -0.2,-1.33 -1.08,-3.48 z"
           id="path4646"
           inkscape:connector-curvature="0"
           style="fill:#000000;stroke-width:0" /><path
           d="m 501.32,413.74 -0.01,0.08 0,0.08 -0.01,0.07 -0.01,0.08 -0.02,0.06 -0.02,0.07 -0.02,0.06 -0.03,0.06 -0.03,0.06 -0.03,0.05 -0.03,0.05 -0.04,0.05 -0.03,0.05 -0.04,0.04 -0.04,0.04 -0.05,0.04 -0.04,0.03 -0.05,0.04 -0.05,0.03 -0.05,0.03 -0.05,0.02 -0.05,0.02 -0.05,0.03 -0.05,0.01 -0.05,0.02 -0.06,0.01 -0.05,0.02 -0.05,0 -0.06,0.01 -0.05,0.01 -0.05,0 -0.05,0 c -0.99,0 -1.75,-0.94 -1.75,-1.67 0,-0.59 0.42,-1.22 1.25,-1.22 0.87,0 1.72,0.81 1.72,1.67 z"
           id="path4648"
           inkscape:connector-curvature="0"
           style="fill:#000000;stroke-width:0" /><path
           d="m 494.1,390.26 -0.05,-0.18 -0.06,-0.18 -0.06,-0.19 -0.07,-0.19 -0.07,-0.18 -0.09,-0.19 -0.08,-0.19 -0.1,-0.18 -0.1,-0.19 -0.1,-0.18 -0.11,-0.19 -0.12,-0.17 -0.12,-0.18 -0.13,-0.17 -0.14,-0.17 -0.13,-0.16 -0.15,-0.15 -0.14,-0.15 -0.16,-0.15 -0.15,-0.13 -0.17,-0.13 -0.16,-0.12 -0.17,-0.11 -0.18,-0.11 -0.17,-0.09 -0.19,-0.08 -0.18,-0.07 -0.19,-0.06 -0.19,-0.04 -0.2,-0.04 -0.2,-0.02 -0.2,-0.01 c -0.38,0 -0.86,0.1 -1.17,0.24 0.65,0.39 0.9,1.15 0.9,1.5 0,0.7 -0.5,1.19 -1.26,1.19 -0.94,0 -1.74,-0.8 -1.74,-1.85 0,-1.22 1.25,-2.06 3.27,-2.06 2.94,0 6.14,2.16 6.91,5.3 l 3.17,12.75 c 0.14,0.56 0.17,0.87 0.17,1.18 0,1.82 -1.42,3.24 -3.52,3.24 -3.76,0 -6,-4.77 -6,-5.36 0,-0.42 0.49,-0.42 0.74,-0.42 0.56,0 0.59,0.08 0.8,0.56 1.43,3.34 3.25,4.25 4.35,4.25 0.94,0 1.16,-0.77 1.16,-1.67 0,-0.39 0,-0.63 -0.14,-1.19 z"
           id="path4650"
           inkscape:connector-curvature="0"
           style="fill:#000000;stroke-width:0" /><path
           d="m 511.75,415.21 0,0.01 0.01,0.02 0,0.01 0,0.02 0.01,0.01 0,0.02 0.01,0.03 0.01,0.04 0,0.03 0.01,0.04 0.01,0.03 0.01,0.04 0,0.04 0.01,0.03 0,0.02 0,0.01 0.01,0.02 0,0.02 0,0.01 0,0.01 0,0.02 0,0.01 0,0.01 0,0.02 c 0,0.53 -0.54,0.5 -0.93,0.45 l -3.77,-0.31 c -0.45,-0.03 -0.91,-0.07 -0.91,-0.8 0,-0.48 0.46,-0.48 0.91,-0.48 1.67,0 1.67,-0.25 1.67,-0.57 0,-0.14 -0.09,-0.62 -0.14,-0.79 l -4.94,-19.77 c -0.14,-0.48 -0.14,-0.55 -0.14,-0.72 0,-0.67 0.49,-1.04 1.11,-1.04 1.16,0 1.39,1 1.58,1.67 l 1.63,6.54 c 1.86,-0.17 4.21,-0.87 4.21,-2.86 0,-0.2 0,-0.34 -0.09,-0.87 -0.14,-0.52 -0.14,-0.63 -0.14,-0.97 0,-1.87 1.36,-3.51 3.52,-3.51 3.34,0 4.45,5.21 4.45,5.32 0,0.46 -0.45,0.46 -0.74,0.46 -0.62,0 -0.65,-0.11 -0.82,-0.71 -0.42,-1.7 -1.22,-4.11 -2.78,-4.11 -0.74,0 -1.19,0.46 -1.19,1.75 0,0.14 0,0.72 0.2,1.57 0.11,0.51 0.17,0.93 0.17,1.15 0,2.64 -3.06,3.41 -5.22,3.69 0.1,0.06 1.14,0.73 2.96,2.55 1.61,1.56 3.25,3.06 4.98,3.06 0.6,0 0.88,-0.28 0.99,-0.48 -0.74,-0.22 -1.33,-0.85 -1.33,-1.68 0,-0.98 0.76,-1.18 1.22,-1.18 0.9,0 1.78,0.73 1.78,1.98 0,1.22 -0.91,2.33 -2.58,2.33 -1.72,0 -3.31,-1.03 -5.34,-3.06 -2.02,-1.99 -2.93,-2.64 -3.89,-3.07 z"
           id="path4652"
           inkscape:connector-curvature="0"
           style="fill:#000000;stroke-width:0" /></g>    </g>
    <g
       id="g4780"
       transform="matrix(1.4928726,0,0,1.4928726,136.93157,81.092212)">
      <g
         word-spacing="normal"
         letter-spacing="normal"
         font-size-adjust="none"
         font-stretch="normal"
         font-weight="normal"
         font-variant="normal"
         font-style="normal"
         stroke-miterlimit="10.433"
         xml:space="preserve"
         transform="matrix(0.34943034,0,0,-0.34943034,-61.15031,241.26093)"
         id="g4782"
         style="font-style:normal;font-variant:normal;font-weight:normal;font-stretch:normal;letter-spacing:normal;word-spacing:normal;text-anchor:start;fill:none;stroke:#000000;stroke-linecap:butt;stroke-linejoin:miter;stroke-miterlimit:10.43299961;stroke-opacity:1;stroke-dasharray:none;stroke-dashoffset:0"><path
           id="path4784"
           d="m 479.29,417.96 -0.01,0.37 -0.01,0.35 -0.02,0.35 -0.02,0.34 -0.06,0.65 -0.09,0.63 -0.11,0.59 -0.14,0.57 -0.15,0.54 -0.18,0.51 -0.19,0.49 -0.21,0.45 -0.23,0.44 -0.25,0.4 -0.26,0.38 -0.27,0.36 -0.29,0.33 -0.3,0.31 -0.31,0.29 -0.31,0.26 -0.33,0.24 -0.34,0.22 -0.34,0.2 -0.35,0.18 -0.35,0.16 -0.36,0.14 -0.35,0.12 -0.36,0.11 -0.37,0.09 -0.36,0.06 -0.36,0.06 -0.35,0.04 -0.35,0.02 -0.35,0 -0.05,-1.09 c 4.94,0 4.94,-6.53 4.94,-10.41 0,-1.84 0,-4.73 0.09,-5.57 h 0 c -4.37,-3.85 -8.22,-4.39 -10.2,-4.39 -3,0 -4.49,2.25 -4.49,5.43 0,2.44 1.3,7.82 2.89,10.36 2.33,3.64 5.04,4.58 6.77,4.58 l 0.05,1.09 c -6.82,0 -13.39,-7.12 -13.39,-14.14 0,-4.64 2.98,-8.42 8.06,-8.42 3.14,0 6.73,1.14 10.51,4.19 0.66,-2.64 2.3,-4.19 4.54,-4.19 2.64,0 4.18,2.74 4.18,3.53 0,0.36 -0.29,0.5 -0.59,0.5 -0.36,0 -0.5,-0.14 -0.66,-0.5 -0.89,-2.43 -2.68,-2.43 -2.78,-2.43 -1.54,0 -1.54,3.89 -1.54,5.07 0,1.05 0,1.16 0.5,1.75 4.68,5.88 5.73,11.66 5.73,11.71 0,0.11 -0.06,0.5 -0.61,0.5 -0.5,0 -0.5,-0.14 -0.75,-1.05 -0.89,-3.14 -2.53,-6.92 -4.87,-9.86 z"
           inkscape:connector-curvature="0"
           style="fill:#000000;stroke-width:0" /><path
           id="path4786"
           d="m 502.98,451.86 0,0.06 -0.01,0.05 -0.01,0.06 0,0.06 -0.02,0.05 -0.01,0.06 -0.02,0.06 -0.02,0.06 -0.02,0.05 -0.03,0.06 -0.03,0.06 -0.03,0.05 -0.03,0.05 -0.04,0.06 -0.04,0.05 -0.04,0.05 -0.04,0.04 -0.05,0.05 -0.05,0.04 -0.05,0.04 -0.06,0.04 -0.06,0.04 -0.06,0.03 -0.06,0.03 -0.07,0.03 -0.07,0.03 -0.07,0.02 -0.08,0.02 -0.07,0.01 -0.08,0.01 -0.09,0.01 -0.08,0 c -1.02,0 -1.96,-0.99 -1.96,-1.92 0,-0.57 0.42,-1.33 1.39,-1.33 0.94,0 1.96,0.9 1.96,1.92 z"
           inkscape:connector-curvature="0"
           style="fill:#000000;stroke-width:0" /><path
           id="path4788"
           d="m 495.59,428.38 -0.06,-0.23 -0.07,-0.22 -0.07,-0.22 -0.08,-0.22 -0.09,-0.21 -0.09,-0.21 -0.1,-0.2 -0.11,-0.2 -0.11,-0.2 -0.12,-0.19 -0.12,-0.18 -0.12,-0.18 -0.14,-0.18 -0.13,-0.16 -0.15,-0.16 -0.14,-0.16 -0.15,-0.15 -0.16,-0.14 -0.15,-0.13 -0.17,-0.12 -0.16,-0.12 -0.17,-0.11 -0.17,-0.09 -0.18,-0.09 -0.18,-0.08 -0.18,-0.08 -0.18,-0.06 -0.18,-0.05 -0.19,-0.04 -0.19,-0.02 -0.19,-0.02 -0.19,-0.01 c -0.45,0 -0.87,0.07 -1.26,0.21 0.9,0.42 1.18,1.25 1.18,1.78 0,0.83 -0.65,1.28 -1.36,1.28 -1.07,0 -1.98,-0.94 -1.98,-2.05 0,-1.33 1.36,-2.2 3.45,-2.2 2.1,0 6.16,1.25 7.25,5.5 l 3.13,12.48 c 0.11,0.38 0.17,0.69 0.17,1.22 0,1.91 -1.63,3.27 -3.72,3.27 -3.87,0 -6.09,-4.85 -6.09,-5.33 0,-0.45 0.48,-0.45 0.59,-0.45 0.41,0 0.45,0.11 0.69,0.62 0.87,2.03 2.69,4.19 4.7,4.19 0.88,0 1.19,-0.59 1.19,-1.7 0,-0.39 -0.06,-0.88 -0.11,-1.05 z"
           inkscape:connector-curvature="0"
           style="fill:#000000;stroke-width:0" /><path
           id="path4790"
           d="m 498.91,414.37 0,0.01 0.01,0.02 0,0.01 0,0.02 0.01,0.01 0,0.02 0.01,0.03 0.01,0.04 0,0.03 0.01,0.04 0.01,0.03 0.01,0.04 0,0.04 0.01,0.03 0,0.02 0,0.01 0.01,0.02 0,0.02 0,0.01 0,0.01 0,0.02 0,0.01 0,0.01 0,0.02 c 0,0.53 -0.54,0.5 -0.93,0.45 l -3.77,-0.31 c -0.45,-0.03 -0.91,-0.07 -0.91,-0.8 0,-0.48 0.46,-0.48 0.91,-0.48 1.67,0 1.67,-0.25 1.67,-0.57 0,-0.14 -0.09,-0.62 -0.14,-0.79 l -4.94,-19.77 c -0.14,-0.48 -0.14,-0.55 -0.14,-0.72 0,-0.67 0.49,-1.04 1.11,-1.04 1.16,0 1.39,1 1.58,1.67 l 1.63,6.54 c 1.86,-0.17 4.22,-0.87 4.22,-2.86 0,-0.2 0,-0.34 -0.1,-0.87 -0.14,-0.52 -0.14,-0.63 -0.14,-0.97 0,-1.87 1.36,-3.51 3.52,-3.51 3.34,0 4.45,5.21 4.45,5.32 0,0.46 -0.45,0.46 -0.73,0.46 -0.63,0 -0.66,-0.11 -0.83,-0.71 -0.42,-1.7 -1.22,-4.11 -2.78,-4.11 -0.74,0 -1.19,0.46 -1.19,1.75 0,0.14 0,0.72 0.2,1.57 0.11,0.51 0.17,0.93 0.17,1.15 0,2.64 -3.06,3.41 -5.22,3.69 0.1,0.06 1.15,0.73 2.96,2.55 1.61,1.56 3.25,3.06 4.98,3.06 0.6,0 0.88,-0.28 0.99,-0.48 -0.74,-0.22 -1.33,-0.85 -1.33,-1.68 0,-0.98 0.76,-1.18 1.22,-1.18 0.9,0 1.78,0.73 1.78,1.98 0,1.22 -0.91,2.33 -2.58,2.33 -1.72,0 -3.31,-1.03 -5.34,-3.06 -2.02,-1.99 -2.93,-2.64 -3.89,-3.07 z"
           inkscape:connector-curvature="0"
           style="fill:#000000;stroke-width:0" /><path
           id="path4792"
           d="m 518.84,412.9 -0.01,0.07 0,0.07 -0.01,0.06 -0.01,0.07 -0.01,0.06 -0.02,0.06 -0.01,0.06 -0.03,0.05 -0.02,0.06 -0.03,0.05 -0.02,0.05 -0.03,0.05 -0.04,0.05 -0.03,0.04 -0.04,0.05 -0.04,0.04 -0.04,0.04 -0.05,0.03 -0.04,0.04 -0.05,0.03 -0.05,0.03 -0.05,0.03 -0.05,0.02 -0.06,0.02 -0.05,0.02 -0.06,0.02 -0.06,0.02 -0.06,0.01 -0.06,0.01 -0.06,0.01 -0.07,0 -0.06,0 c -0.97,0 -1.74,-0.91 -1.74,-1.67 0,-0.63 0.41,-1.22 1.25,-1.22 0.88,0 1.71,0.84 1.71,1.67 z"
           inkscape:connector-curvature="0"
           style="fill:#000000;stroke-width:0" /><path
           id="path4794"
           d="m 513.76,399.81 -0.03,-0.07 -0.02,-0.07 -0.03,-0.07 -0.03,-0.08 -0.03,-0.09 -0.04,-0.09 -0.03,-0.09 -0.04,-0.09 -0.04,-0.1 -0.04,-0.1 -0.04,-0.11 -0.04,-0.11 -0.08,-0.21 -0.09,-0.23 -0.09,-0.23 -0.08,-0.23 -0.09,-0.23 -0.09,-0.22 -0.08,-0.22 -0.04,-0.11 -0.04,-0.11 -0.04,-0.1 -0.04,-0.1 -0.03,-0.1 -0.04,-0.09 c -0.34,-0.91 -0.82,-2.16 -0.82,-2.78 0,-1.61 1.25,-2.92 3.09,-2.92 3.48,0 5.06,4.76 5.06,5.32 0,0.46 -0.45,0.46 -0.73,0.46 -0.63,0 -0.66,-0.11 -0.85,-0.74 -0.45,-1.67 -1.59,-4.08 -3.37,-4.08 -0.83,0 -0.83,0.85 -0.83,1.19 0,0.83 0.59,2.33 1.05,3.45 0.37,1.08 2.12,5.5 2.29,6.04 0.21,0.57 0.21,0.68 0.21,1.14 0,1.56 -1.22,2.92 -3.14,2.92 -3.41,0 -5.02,-4.7 -5.02,-5.33 0,-0.45 0.45,-0.45 0.74,-0.45 0.42,0 0.62,0 0.73,0.45 1.14,4.05 2.83,4.36 3.45,4.36 0.41,0 0.86,-0.11 0.86,-1.19 0,-0.76 -0.26,-1.45 -0.54,-2.19 z"
           inkscape:connector-curvature="0"
           style="fill:#000000;stroke-width:0" /></g>    </g>
    <g
       transform="matrix(2.0082329,0,0,2.0082329,-160.06671,44.676726)"
       id="g4926">
      <g
         style="font-style:normal;font-variant:normal;font-weight:normal;font-stretch:normal;letter-spacing:normal;word-spacing:normal;text-anchor:start;fill:none;stroke:#000000;stroke-linecap:butt;stroke-linejoin:miter;stroke-miterlimit:10.43299961;stroke-opacity:1;stroke-dasharray:none;stroke-dashoffset:0"
         id="g4928"
         transform="matrix(0.34943034,0,0,-0.34943034,-61.15031,241.26093)"
         xml:space="preserve"
         stroke-miterlimit="10.433"
         font-style="normal"
         font-variant="normal"
         font-weight="normal"
         font-stretch="normal"
         font-size-adjust="none"
         letter-spacing="normal"
         word-spacing="normal"><path
           style="fill:#000000;stroke-width:0"
           inkscape:connector-curvature="0"
           d="m 469.68,437.34 -0.01,0.09 0,0.09 -0.01,0.1 -0.02,0.08 -0.01,0.09 -0.03,0.09 -0.02,0.08 -0.03,0.08 -0.03,0.08 -0.04,0.08 -0.04,0.08 -0.05,0.07 -0.04,0.07 -0.06,0.07 -0.05,0.06 -0.06,0.06 -0.06,0.06 -0.06,0.06 -0.07,0.05 -0.07,0.05 -0.08,0.05 -0.07,0.04 -0.09,0.04 -0.08,0.04 -0.08,0.03 -0.09,0.03 -0.1,0.02 -0.09,0.02 -0.1,0.02 -0.1,0.01 -0.1,0 -0.11,0.01 c -1.36,0 -2.7,-1.3 -2.7,-2.64 0,-0.96 0.7,-1.8 1.91,-1.8 1.14,0 2.64,1.14 2.64,2.64 z"
           id="path4930" /><path
           style="fill:#000000;stroke-width:0"
           inkscape:connector-curvature="0"
           d="m 465.88,418.61 0.05,0.13 0.05,0.12 0.05,0.12 0.05,0.11 0.04,0.1 0.04,0.1 0.03,0.09 0.04,0.09 0.03,0.09 0.04,0.08 0.03,0.08 0.02,0.08 0.03,0.07 0.03,0.07 0.05,0.15 0.05,0.14 0.05,0.14 0.03,0.07 0.03,0.08 0.03,0.08 0.02,0.08 0.04,0.08 0.03,0.09 0.03,0.1 0.04,0.09 0.03,0.11 0.04,0.11 0.05,0.11 0.04,0.13 c 0.41,1 0.66,1.68 0.66,2.64 0,2.23 -1.59,4.07 -4.09,4.07 -4.68,0 -6.58,-7.21 -6.58,-7.67 0,-0.5 0.5,-0.5 0.61,-0.5 0.5,0 0.54,0.11 0.79,0.91 1.35,4.69 3.33,6.17 5.03,6.17 0.4,0 1.25,0 1.25,-1.59 0,-1.05 -0.35,-2.1 -0.56,-2.6 -0.39,-1.29 -2.64,-7.06 -3.44,-9.22 -0.48,-1.28 -1.14,-2.93 -1.14,-3.98 0,-2.33 1.69,-4.08 4.1,-4.08 4.67,0 6.51,7.22 6.51,7.67 0,0.5 -0.43,0.5 -0.59,0.5 -0.5,0 -0.5,-0.15 -0.75,-0.9 -0.89,-3.13 -2.53,-6.17 -5.08,-6.17 -0.84,0 -1.2,0.5 -1.2,1.64 0,1.25 0.31,1.95 1.45,4.98 z"
           id="path4932" /></g>    </g>
    <g
       transform="matrix(1.9957032,0,0,1.9957032,155.90699,70.361645)"
       id="g5052">
      <g
         style="font-style:normal;font-variant:normal;font-weight:normal;font-stretch:normal;letter-spacing:normal;word-spacing:normal;text-anchor:start;fill:none;stroke:#000000;stroke-linecap:butt;stroke-linejoin:miter;stroke-miterlimit:10.43299961;stroke-opacity:1;stroke-dasharray:none;stroke-dashoffset:0"
         word-spacing="normal"
         letter-spacing="normal"
         font-size-adjust="none"
         font-stretch="normal"
         font-weight="normal"
         font-variant="normal"
         font-style="normal"
         stroke-miterlimit="10.433"
         xml:space="preserve"
         transform="matrix(0.34943034,0,0,-0.34943034,-61.15031,241.26093)"
         id="g5054"><path
           style="fill:#000000;stroke-width:0"
           inkscape:connector-curvature="0"
           id="path5056"
           d="m 475.3,437.34 0,0.09 -0.01,0.08 -0.01,0.09 -0.01,0.09 -0.02,0.08 -0.02,0.08 -0.03,0.09 -0.03,0.08 -0.03,0.07 -0.04,0.08 -0.04,0.08 -0.04,0.07 -0.05,0.07 -0.05,0.07 -0.06,0.07 -0.06,0.06 -0.06,0.06 -0.07,0.06 -0.07,0.05 -0.07,0.06 -0.08,0.04 -0.07,0.05 -0.09,0.04 -0.08,0.04 -0.09,0.03 -0.09,0.03 -0.1,0.03 -0.1,0.02 -0.1,0.01 -0.1,0.02 -0.11,0 -0.11,0.01 c -1.16,0 -2.64,-1.16 -2.64,-2.64 0,-1 0.69,-1.8 1.84,-1.8 1.35,0 2.69,1.3 2.69,2.64 z" /><path
           style="fill:#000000;stroke-width:0"
           inkscape:connector-curvature="0"
           id="path5058"
           d="m 465.29,403.71 -0.1,-0.35 -0.1,-0.35 -0.11,-0.34 -0.12,-0.33 -0.12,-0.33 -0.14,-0.32 -0.14,-0.31 -0.14,-0.3 -0.16,-0.3 -0.16,-0.29 -0.16,-0.28 -0.18,-0.26 -0.18,-0.26 -0.18,-0.25 -0.2,-0.24 -0.19,-0.23 -0.2,-0.22 -0.21,-0.2 -0.21,-0.19 -0.22,-0.19 -0.22,-0.16 -0.23,-0.16 -0.23,-0.14 -0.23,-0.13 -0.24,-0.12 -0.24,-0.1 -0.25,-0.08 -0.25,-0.08 -0.25,-0.05 -0.25,-0.04 -0.26,-0.03 -0.26,-0.01 c -0.3,0 -1.05,0 -1.95,0.46 1.5,0.36 2.25,1.64 2.25,2.64 0,0.79 -0.55,1.75 -1.89,1.75 -1.25,0 -2.69,-1.05 -2.69,-2.85 0,-2 1.98,-3.09 4.37,-3.09 3.49,0 8.13,2.64 9.38,7.58 l 4.58,18.23 c 0.25,1 0.25,1.69 0.25,1.85 0,2.84 -2.1,4.57 -4.58,4.57 -5.09,0 -7.92,-7.21 -7.92,-7.67 0,-0.5 0.48,-0.5 0.59,-0.5 0.45,0 0.5,0.07 0.89,1 1.25,3.05 3.55,6.08 6.28,6.08 0.71,0 1.6,-0.2 1.6,-2.28 0,-1.16 -0.16,-1.7 -0.35,-2.55 z" /></g>    </g>
    <g
       transform="matrix(2.0195784,0,0,2.0195784,70.810694,-152.56973)"
       id="g5186">
      <g
         style="font-style:normal;font-variant:normal;font-weight:normal;font-stretch:normal;letter-spacing:normal;word-spacing:normal;text-anchor:start;fill:none;stroke:#000000;stroke-linecap:butt;stroke-linejoin:miter;stroke-miterlimit:10.43299961;stroke-opacity:1;stroke-dasharray:none;stroke-dashoffset:0"
         id="g5188"
         transform="matrix(0.34943034,0,0,-0.34943034,-61.15031,241.26093)"
         xml:space="preserve"
         stroke-miterlimit="10.433"
         font-style="normal"
         font-variant="normal"
         font-weight="normal"
         font-stretch="normal"
         font-size-adjust="none"
         letter-spacing="normal"
         word-spacing="normal"><path
           style="fill:#000000;stroke-width:0"
           inkscape:connector-curvature="0"
           d="m 469.82,440.23 0,0 0,0.01 0,0 0,0.01 -0.01,0.02 0,0.01 0,0.02 0,0.02 0,0.02 -0.01,0.02 0,0.02 -0.01,0.02 -0.01,0.02 -0.01,0.03 -0.01,0.02 -0.01,0.03 -0.01,0.02 -0.02,0.03 -0.02,0.02 -0.02,0.02 -0.02,0.03 -0.01,0.01 -0.01,0.01 -0.02,0.01 -0.01,0.01 -0.02,0.01 -0.01,0.01 -0.02,0.01 -0.01,0.01 -0.02,0.01 -0.02,0.01 -0.02,0 -0.02,0.01 -0.02,0.01 -0.02,0 -0.02,0.01 -0.02,0.01 -0.03,0 -0.02,0 -0.03,0.01 -0.02,0 -0.03,0 -0.03,0.01 -0.02,0 -0.03,0 c -1.16,0 -4.79,-0.41 -6.08,-0.5 -0.41,-0.05 -0.96,-0.1 -0.96,-1 0,-0.6 0.46,-0.6 1.21,-0.6 2.39,0 2.48,-0.34 2.48,-0.84 l -0.15,-1 -7.22,-28.7 c -0.21,-0.69 -0.21,-0.8 -0.21,-1.1 0,-1.14 1,-1.39 1.46,-1.39 0.64,0 1.39,0.46 1.68,1.05 0.25,0.45 2.5,9.66 2.8,10.91 1.69,-0.15 5.78,-0.94 5.78,-4.24 0,-0.34 0,-0.55 -0.15,-1.05 -0.1,-0.59 -0.21,-1.18 -0.21,-1.73 0,-2.95 2,-4.94 4.6,-4.94 1.48,0 2.83,0.8 3.93,2.64 1.24,2.19 1.79,4.94 1.79,5.03 0,0.5 -0.44,0.5 -0.6,0.5 -0.5,0 -0.54,-0.2 -0.7,-0.9 -0.99,-3.63 -2.14,-6.17 -4.33,-6.17 -0.94,0 -1.59,0.54 -1.59,2.34 0,0.84 0.2,1.98 0.4,2.78 0.19,0.86 0.19,1.05 0.19,1.55 0,3.25 -3.14,4.69 -7.37,5.23 1.54,0.91 3.14,2.5 4.29,3.69 2.39,2.64 4.67,4.78 7.13,4.78 0.29,0 0.34,0 0.44,-0.05 0.6,-0.09 0.65,-0.09 1.04,-0.39 0.11,-0.06 0.11,-0.11 0.21,-0.2 -2.4,-0.16 -2.85,-2.09 -2.85,-2.69 0,-0.79 0.55,-1.75 1.89,-1.75 1.3,0 2.75,1.1 2.75,3.03 0,1.5 -1.15,3.14 -3.39,3.14 -1.39,0 -3.69,-0.39 -7.28,-4.37 -1.69,-1.89 -3.62,-3.89 -5.52,-4.64 z"
           id="path5190" /></g>    </g>
    <g
       id="g5319"
       transform="matrix(1.9811243,0,0,1.9811243,-15.74693,73.444149)">
      <g
         word-spacing="normal"
         letter-spacing="normal"
         font-size-adjust="none"
         font-stretch="normal"
         font-weight="normal"
         font-variant="normal"
         font-style="normal"
         stroke-miterlimit="10.433"
         xml:space="preserve"
         transform="matrix(0.34943034,0,0,-0.34943034,-61.15031,241.26093)"
         id="g5321"
         style="font-style:normal;font-variant:normal;font-weight:normal;font-stretch:normal;letter-spacing:normal;word-spacing:normal;text-anchor:start;fill:none;stroke:#000000;stroke-linecap:butt;stroke-linejoin:miter;stroke-miterlimit:10.43299961;stroke-opacity:1;stroke-dasharray:none;stroke-dashoffset:0"><path
           id="path5323"
           d="m 456.32,411.14 -0.02,-0.03 -0.02,-0.03 -0.02,-0.03 -0.02,-0.03 -0.02,-0.03 -0.02,-0.03 -0.02,-0.03 -0.02,-0.03 -0.02,-0.03 -0.01,-0.01 -0.01,-0.02 -0.01,-0.01 0,-0.02 -0.01,-0.01 -0.01,-0.02 0,-0.02 -0.01,-0.01 0,-0.02 -0.01,-0.02 0,-0.02 0,-0.02 0,-0.01 0,-0.02 c 0,-0.25 0.29,-0.66 0.59,-0.66 0.25,0 0.41,0.16 1.8,1.55 0.4,0.34 1.39,1.29 1.79,1.7 0.5,-3.94 1.94,-7.62 5.58,-7.62 2,0 3.74,1.14 4.78,1.89 0.71,0.5 3.05,2.43 3.05,2.93 0,0.16 -0.16,0.6 -0.61,0.6 -0.14,0 -0.19,-0.05 -0.64,-0.44 -3.19,-3.14 -5.03,-3.89 -6.48,-3.89 -2.24,0 -3.04,2.59 -3.04,6.47 0,0.31 0.1,2.59 0.25,2.84 0.1,0.16 0.1,0.25 1.1,1.25 4.03,4.03 11.11,12.45 11.11,20.17 0,0.85 0,3.89 -2.94,3.89 l 0.05,-1.09 c 1.7,0 1.7,-1.8 1.7,-2.59 0,-8.33 -8.37,-17.05 -10.77,-19.53 h 0 c 0.1,0.54 2.24,11.6 5.08,17.43 1.35,2.69 2.39,4.69 3.99,4.69 l -0.05,1.09 c -4.14,0 -7.83,-8.21 -8.33,-9.37 -2.39,-5.42 -3.92,-11.25 -3.92,-17.19 z"
           inkscape:connector-curvature="0"
           style="fill:#000000;stroke-width:0" /><path
           id="path5325"
           d="m 488.72,420.46 0,0.07 -0.01,0.07 0,0.06 -0.01,0.07 -0.02,0.06 -0.01,0.06 -0.02,0.06 -0.02,0.06 -0.03,0.05 -0.02,0.05 -0.03,0.05 -0.03,0.05 -0.03,0.05 -0.04,0.05 -0.04,0.04 -0.04,0.04 -0.04,0.04 -0.04,0.04 -0.05,0.03 -0.05,0.03 -0.04,0.03 -0.06,0.03 -0.05,0.02 -0.05,0.03 -0.06,0.02 -0.06,0.01 -0.06,0.02 -0.06,0.01 -0.06,0.01 -0.06,0.01 -0.06,0 -0.07,0 c -0.97,0 -1.73,-0.9 -1.73,-1.67 0,-0.62 0.4,-1.22 1.25,-1.22 0.87,0 1.7,0.85 1.7,1.67 z"
           inkscape:connector-curvature="0"
           style="fill:#000000;stroke-width:0" /><path
           id="path5327"
           d="m 483.64,407.37 -0.02,-0.06 -0.03,-0.08 -0.03,-0.07 -0.03,-0.08 -0.03,-0.09 -0.03,-0.08 -0.04,-0.1 -0.04,-0.09 -0.03,-0.1 -0.04,-0.1 -0.04,-0.11 -0.04,-0.1 -0.09,-0.22 -0.09,-0.23 -0.08,-0.23 -0.09,-0.23 -0.09,-0.22 -0.08,-0.23 -0.09,-0.22 -0.04,-0.11 -0.04,-0.1 -0.04,-0.11 -0.03,-0.1 -0.04,-0.1 -0.03,-0.09 c -0.35,-0.91 -0.83,-2.16 -0.83,-2.78 0,-1.61 1.25,-2.92 3.09,-2.92 3.49,0 5.06,4.76 5.06,5.33 0,0.45 -0.45,0.45 -0.73,0.45 -0.62,0 -0.66,-0.11 -0.84,-0.74 -0.46,-1.67 -1.6,-4.07 -3.38,-4.07 -0.83,0 -0.83,0.84 -0.83,1.18 0,0.83 0.6,2.33 1.05,3.46 0.38,1.08 2.12,5.5 2.3,6.03 0.2,0.58 0.2,0.69 0.2,1.14 0,1.56 -1.22,2.92 -3.14,2.92 -3.41,0 -5.02,-4.7 -5.02,-5.33 0,-0.45 0.46,-0.45 0.74,-0.45 0.42,0 0.62,0 0.73,0.45 1.14,4.05 2.83,4.36 3.46,4.36 0.4,0 0.85,-0.11 0.85,-1.19 0,-0.76 -0.26,-1.45 -0.54,-2.18 z"
           inkscape:connector-curvature="0"
           style="fill:#000000;stroke-width:0" /><path
           id="path5329"
           d="m 503,420.46 -0.01,0.09 0,0.07 -0.01,0.08 -0.01,0.07 -0.02,0.07 -0.02,0.06 -0.02,0.06 -0.03,0.06 -0.03,0.06 -0.03,0.06 -0.03,0.05 -0.04,0.05 -0.03,0.04 -0.04,0.04 -0.04,0.04 -0.05,0.04 -0.04,0.04 -0.05,0.03 -0.05,0.03 -0.05,0.03 -0.05,0.02 -0.05,0.03 -0.05,0.02 -0.05,0.02 -0.05,0.01 -0.06,0.02 -0.05,0.01 -0.05,0.01 -0.06,0 -0.05,0.01 -0.05,0 -0.05,0 c -0.99,0 -1.75,-0.93 -1.75,-1.67 0,-0.59 0.42,-1.22 1.25,-1.22 0.87,0 1.72,0.82 1.72,1.67 z"
           inkscape:connector-curvature="0"
           style="fill:#000000;stroke-width:0" /><path
           id="path5331"
           d="m 495.78,396.98 -0.05,-0.18 -0.06,-0.18 -0.06,-0.19 -0.07,-0.18 -0.07,-0.19 -0.09,-0.19 -0.08,-0.19 -0.1,-0.18 -0.1,-0.19 -0.1,-0.18 -0.12,-0.18 -0.11,-0.18 -0.12,-0.18 -0.13,-0.17 -0.14,-0.16 -0.13,-0.17 -0.15,-0.15 -0.14,-0.15 -0.16,-0.15 -0.15,-0.13 -0.17,-0.13 -0.16,-0.12 -0.17,-0.11 -0.18,-0.1 -0.17,-0.09 -0.19,-0.09 -0.18,-0.07 -0.19,-0.05 -0.19,-0.05 -0.2,-0.04 -0.2,-0.02 -0.2,0 c -0.38,0 -0.86,0.09 -1.17,0.23 0.65,0.39 0.9,1.16 0.9,1.5 0,0.7 -0.5,1.19 -1.26,1.19 -0.94,0 -1.74,-0.8 -1.74,-1.85 0,-1.21 1.25,-2.06 3.27,-2.06 2.94,0 6.14,2.16 6.91,5.3 l 3.17,12.75 c 0.14,0.56 0.17,0.87 0.17,1.19 0,1.81 -1.42,3.23 -3.52,3.23 -3.76,0 -6,-4.76 -6,-5.36 0,-0.42 0.49,-0.42 0.74,-0.42 0.56,0 0.59,0.08 0.79,0.56 1.44,3.35 3.25,4.25 4.36,4.25 0.94,0 1.16,-0.76 1.16,-1.67 0,-0.39 0,-0.62 -0.14,-1.19 z"
           inkscape:connector-curvature="0"
           style="fill:#000000;stroke-width:0" /></g>    </g>
    <g
       id="g5469"
       transform="matrix(2.0454682,0,0,2.0454682,114.02477,-53.577336)">
      <g
         id="g5471"
         transform="matrix(0.34943034,0,0,-0.34943034,-61.15031,241.26093)"
         xml:space="preserve"
         stroke-miterlimit="10.433"
         font-style="normal"
         font-variant="normal"
         font-weight="normal"
         font-stretch="normal"
         font-size-adjust="none"
         letter-spacing="normal"
         word-spacing="normal"
         style="font-style:normal;font-variant:normal;font-weight:normal;font-stretch:normal;letter-spacing:normal;word-spacing:normal;text-anchor:start;fill:none;stroke:#000000;stroke-linecap:butt;stroke-linejoin:miter;stroke-miterlimit:10.43299961;stroke-opacity:1;stroke-dasharray:none;stroke-dashoffset:0"><path
           d="m 456.32,411.14 -0.02,-0.03 -0.02,-0.03 -0.02,-0.03 -0.02,-0.03 -0.02,-0.03 -0.02,-0.03 -0.02,-0.03 -0.02,-0.03 -0.02,-0.03 -0.01,-0.01 -0.01,-0.02 -0.01,-0.01 0,-0.02 -0.01,-0.01 -0.01,-0.02 0,-0.02 -0.01,-0.01 0,-0.02 -0.01,-0.02 0,-0.02 0,-0.02 0,-0.01 0,-0.02 c 0,-0.25 0.29,-0.66 0.59,-0.66 0.25,0 0.41,0.16 1.8,1.55 0.4,0.34 1.39,1.29 1.79,1.7 0.5,-3.94 1.94,-7.62 5.58,-7.62 2,0 3.74,1.14 4.78,1.89 0.71,0.5 3.05,2.43 3.05,2.93 0,0.16 -0.16,0.6 -0.61,0.6 -0.14,0 -0.19,-0.05 -0.64,-0.44 -3.19,-3.14 -5.03,-3.89 -6.48,-3.89 -2.24,0 -3.04,2.59 -3.04,6.47 0,0.31 0.1,2.59 0.25,2.84 0.1,0.16 0.1,0.25 1.1,1.25 4.03,4.03 11.11,12.45 11.11,20.17 0,0.85 0,3.89 -2.94,3.89 l 0.05,-1.09 c 1.7,0 1.7,-1.8 1.7,-2.59 0,-8.33 -8.37,-17.05 -10.77,-19.53 h 0 c 0.1,0.54 2.24,11.6 5.08,17.43 1.35,2.69 2.39,4.69 3.99,4.69 l -0.05,1.09 c -4.14,0 -7.83,-8.21 -8.33,-9.37 -2.39,-5.42 -3.92,-11.25 -3.92,-17.19 z"
           id="path5473"
           inkscape:connector-curvature="0"
           style="fill:#000000;stroke-width:0" /><path
           d="m 490.16,420.46 -0.01,0.09 0,0.07 -0.01,0.08 -0.01,0.07 -0.02,0.07 -0.02,0.06 -0.02,0.06 -0.03,0.06 -0.03,0.06 -0.03,0.06 -0.03,0.05 -0.04,0.05 -0.03,0.04 -0.04,0.04 -0.04,0.04 -0.05,0.04 -0.04,0.04 -0.05,0.03 -0.05,0.03 -0.05,0.03 -0.05,0.02 -0.05,0.03 -0.05,0.02 -0.05,0.02 -0.05,0.01 -0.06,0.02 -0.05,0.01 -0.05,0.01 -0.06,0 -0.05,0.01 -0.05,0 -0.05,0 c -0.99,0 -1.75,-0.93 -1.75,-1.67 0,-0.59 0.42,-1.22 1.25,-1.22 0.87,0 1.72,0.82 1.72,1.67 z"
           id="path5475"
           inkscape:connector-curvature="0"
           style="fill:#000000;stroke-width:0" /><path
           d="m 482.94,396.98 -0.05,-0.18 -0.06,-0.18 -0.06,-0.19 -0.07,-0.18 -0.07,-0.19 -0.09,-0.19 -0.08,-0.19 -0.1,-0.18 -0.1,-0.19 -0.1,-0.18 -0.12,-0.18 -0.11,-0.18 -0.12,-0.18 -0.13,-0.17 -0.14,-0.16 -0.13,-0.17 -0.15,-0.15 -0.14,-0.15 -0.16,-0.15 -0.15,-0.13 -0.17,-0.13 -0.16,-0.12 -0.17,-0.11 -0.18,-0.1 -0.17,-0.09 -0.19,-0.09 -0.18,-0.07 -0.19,-0.05 -0.19,-0.05 -0.2,-0.04 -0.2,-0.02 -0.2,0 c -0.38,0 -0.86,0.09 -1.17,0.23 0.65,0.39 0.9,1.16 0.9,1.5 0,0.7 -0.5,1.19 -1.26,1.19 -0.94,0 -1.74,-0.8 -1.74,-1.85 0,-1.21 1.25,-2.06 3.27,-2.06 2.94,0 6.14,2.16 6.91,5.3 l 3.17,12.75 c 0.14,0.56 0.17,0.87 0.17,1.19 0,1.81 -1.42,3.23 -3.52,3.23 -3.76,0 -6,-4.76 -6,-5.36 0,-0.42 0.49,-0.42 0.74,-0.42 0.56,0 0.59,0.08 0.8,0.56 1.43,3.35 3.24,4.25 4.35,4.25 0.94,0 1.16,-0.76 1.16,-1.67 0,-0.39 0,-0.62 -0.14,-1.19 z"
           id="path5477"
           inkscape:connector-curvature="0"
           style="fill:#000000;stroke-width:0" /><path
           d="m 500.59,421.93 0,0.02 0.01,0.01 0,0.02 0,0.01 0.01,0.02 0,0.01 0,0.02 0.01,0.02 0.01,0.03 0,0.04 0.01,0.03 0.01,0.04 0.01,0.03 0,0.04 0.01,0.03 0,0.02 0,0.02 0.01,0.01 0,0.02 0,0.01 0,0.02 0,0.01 0,0.01 0,0.02 0,0.01 c 0,0.53 -0.54,0.5 -0.93,0.45 l -3.77,-0.31 c -0.45,-0.03 -0.91,-0.06 -0.91,-0.8 0,-0.48 0.46,-0.48 0.91,-0.48 1.67,0 1.67,-0.25 1.67,-0.56 0,-0.14 -0.09,-0.63 -0.14,-0.8 l -4.94,-19.77 c -0.14,-0.48 -0.14,-0.54 -0.14,-0.72 0,-0.67 0.49,-1.04 1.11,-1.04 1.16,0 1.39,1 1.58,1.67 l 1.63,6.55 c 1.86,-0.18 4.21,-0.88 4.21,-2.86 0,-0.21 0,-0.35 -0.09,-0.88 -0.14,-0.51 -0.14,-0.62 -0.14,-0.97 0,-1.87 1.36,-3.51 3.52,-3.51 3.34,0 4.45,5.22 4.45,5.33 0,0.45 -0.45,0.45 -0.74,0.45 -0.62,0 -0.65,-0.11 -0.82,-0.7 -0.43,-1.71 -1.22,-4.11 -2.78,-4.11 -0.74,0 -1.19,0.45 -1.19,1.75 0,0.14 0,0.72 0.2,1.56 0.11,0.51 0.17,0.94 0.17,1.16 0,2.64 -3.06,3.4 -5.22,3.68 0.1,0.07 1.14,0.74 2.96,2.55 1.61,1.56 3.25,3.06 4.98,3.06 0.6,0 0.88,-0.28 0.99,-0.48 -0.74,-0.22 -1.33,-0.85 -1.33,-1.67 0,-0.99 0.76,-1.19 1.22,-1.19 0.9,0 1.78,0.73 1.78,1.98 0,1.22 -0.91,2.33 -2.58,2.33 -1.72,0 -3.31,-1.03 -5.34,-3.06 -2.02,-1.99 -2.93,-2.64 -3.89,-3.06 z"
           id="path5479"
           inkscape:connector-curvature="0"
           style="fill:#000000;stroke-width:0" /></g>    </g>
    <g
       id="g5629"
       transform="matrix(1.9917025,0,0,1.9917025,-69.388657,-72.976951)">
      <g
         word-spacing="normal"
         letter-spacing="normal"
         font-size-adjust="none"
         font-stretch="normal"
         font-weight="normal"
         font-variant="normal"
         font-style="normal"
         stroke-miterlimit="10.433"
         xml:space="preserve"
         transform="matrix(0.34943034,0,0,-0.34943034,-61.15031,241.26093)"
         id="g5631"
         style="font-style:normal;font-variant:normal;font-weight:normal;font-stretch:normal;letter-spacing:normal;word-spacing:normal;text-anchor:start;fill:none;stroke:#000000;stroke-linecap:butt;stroke-linejoin:miter;stroke-miterlimit:10.43299961;stroke-opacity:1;stroke-dasharray:none;stroke-dashoffset:0"><path
           id="path5633"
           d="m 456.32,411.14 -0.02,-0.03 -0.02,-0.03 -0.02,-0.03 -0.02,-0.03 -0.02,-0.03 -0.02,-0.03 -0.02,-0.03 -0.02,-0.03 -0.02,-0.03 -0.01,-0.01 -0.01,-0.02 -0.01,-0.01 0,-0.02 -0.01,-0.01 -0.01,-0.02 0,-0.02 -0.01,-0.01 0,-0.02 -0.01,-0.02 0,-0.02 0,-0.02 0,-0.01 0,-0.02 c 0,-0.25 0.29,-0.66 0.59,-0.66 0.25,0 0.41,0.16 1.8,1.55 0.4,0.34 1.39,1.29 1.79,1.7 0.5,-3.94 1.94,-7.62 5.58,-7.62 2,0 3.74,1.14 4.78,1.89 0.71,0.5 3.05,2.43 3.05,2.93 0,0.16 -0.16,0.6 -0.61,0.6 -0.14,0 -0.19,-0.05 -0.64,-0.44 -3.19,-3.14 -5.03,-3.89 -6.48,-3.89 -2.24,0 -3.04,2.59 -3.04,6.47 0,0.31 0.1,2.59 0.25,2.84 0.1,0.16 0.1,0.25 1.1,1.25 4.03,4.03 11.11,12.45 11.11,20.17 0,0.85 0,3.89 -2.94,3.89 l 0.05,-1.09 c 1.7,0 1.7,-1.8 1.7,-2.59 0,-8.33 -8.37,-17.05 -10.77,-19.53 h 0 c 0.1,0.54 2.24,11.6 5.08,17.43 1.35,2.69 2.39,4.69 3.99,4.69 l -0.05,1.09 c -4.14,0 -7.83,-8.21 -8.33,-9.37 -2.39,-5.42 -3.92,-11.25 -3.92,-17.19 z"
           inkscape:connector-curvature="0"
           style="fill:#000000;stroke-width:0" /><path
           id="path5635"
           d="m 487.75,421.93 0,0.02 0.01,0.01 0,0.02 0,0.01 0.01,0.02 0,0.01 0,0.02 0.01,0.02 0.01,0.03 0,0.04 0.01,0.03 0.01,0.04 0.01,0.03 0,0.04 0.01,0.03 0,0.02 0,0.02 0.01,0.01 0,0.02 0,0.01 0,0.02 0,0.01 0,0.01 0,0.02 0,0.01 c 0,0.53 -0.54,0.5 -0.93,0.45 l -3.77,-0.31 c -0.45,-0.03 -0.91,-0.06 -0.91,-0.8 0,-0.48 0.46,-0.48 0.91,-0.48 1.67,0 1.67,-0.25 1.67,-0.56 0,-0.14 -0.09,-0.63 -0.14,-0.8 l -4.94,-19.77 c -0.14,-0.48 -0.14,-0.54 -0.14,-0.72 0,-0.67 0.49,-1.04 1.11,-1.04 1.16,0 1.39,1 1.58,1.67 l 1.63,6.55 c 1.86,-0.18 4.21,-0.88 4.21,-2.86 0,-0.21 0,-0.35 -0.09,-0.88 -0.14,-0.51 -0.14,-0.62 -0.14,-0.97 0,-1.87 1.36,-3.51 3.52,-3.51 3.34,0 4.45,5.22 4.45,5.33 0,0.45 -0.45,0.45 -0.74,0.45 -0.62,0 -0.65,-0.11 -0.82,-0.7 -0.42,-1.71 -1.22,-4.11 -2.78,-4.11 -0.74,0 -1.19,0.45 -1.19,1.75 0,0.14 0,0.72 0.2,1.56 0.11,0.51 0.17,0.94 0.17,1.16 0,2.64 -3.06,3.4 -5.22,3.68 0.1,0.07 1.14,0.74 2.96,2.55 1.61,1.56 3.25,3.06 4.98,3.06 0.6,0 0.88,-0.28 0.99,-0.48 -0.74,-0.22 -1.33,-0.85 -1.33,-1.67 0,-0.99 0.76,-1.19 1.22,-1.19 0.9,0 1.78,0.73 1.78,1.98 0,1.22 -0.91,2.33 -2.58,2.33 -1.72,0 -3.31,-1.03 -5.34,-3.06 -2.02,-1.99 -2.93,-2.64 -3.89,-3.06 z"
           inkscape:connector-curvature="0"
           style="fill:#000000;stroke-width:0" /><path
           id="path5637"
           d="m 507.68,420.46 -0.01,0.07 0,0.07 -0.01,0.06 -0.01,0.07 -0.01,0.06 -0.02,0.06 -0.01,0.06 -0.03,0.06 -0.02,0.05 -0.03,0.05 -0.02,0.05 -0.03,0.05 -0.04,0.05 -0.03,0.05 -0.04,0.04 -0.04,0.04 -0.04,0.04 -0.05,0.04 -0.04,0.03 -0.05,0.03 -0.05,0.03 -0.05,0.03 -0.05,0.02 -0.06,0.03 -0.05,0.02 -0.06,0.01 -0.06,0.02 -0.06,0.01 -0.06,0.01 -0.06,0.01 -0.07,0 -0.06,0 c -0.97,0 -1.74,-0.9 -1.74,-1.67 0,-0.62 0.41,-1.22 1.25,-1.22 0.88,0 1.71,0.85 1.71,1.67 z"
           inkscape:connector-curvature="0"
           style="fill:#000000;stroke-width:0" /><path
           id="path5639"
           d="m 502.6,407.37 -0.03,-0.06 -0.02,-0.08 -0.03,-0.07 -0.03,-0.08 -0.03,-0.09 -0.04,-0.08 -0.03,-0.1 -0.04,-0.09 -0.04,-0.1 -0.04,-0.1 -0.04,-0.11 -0.04,-0.1 -0.08,-0.22 -0.09,-0.23 -0.09,-0.23 -0.08,-0.23 -0.09,-0.22 -0.09,-0.23 -0.08,-0.22 -0.04,-0.11 -0.04,-0.1 -0.04,-0.11 -0.04,-0.1 -0.03,-0.1 -0.04,-0.09 c -0.34,-0.91 -0.82,-2.16 -0.82,-2.78 0,-1.61 1.25,-2.92 3.09,-2.92 3.48,0 5.06,4.76 5.06,5.33 0,0.45 -0.45,0.45 -0.73,0.45 -0.63,0 -0.66,-0.11 -0.85,-0.74 -0.45,-1.67 -1.59,-4.07 -3.37,-4.07 -0.83,0 -0.83,0.84 -0.83,1.18 0,0.83 0.59,2.33 1.05,3.46 0.37,1.08 2.12,5.5 2.29,6.03 0.21,0.58 0.21,0.69 0.21,1.14 0,1.56 -1.22,2.92 -3.14,2.92 -3.41,0 -5.02,-4.7 -5.02,-5.33 0,-0.45 0.45,-0.45 0.74,-0.45 0.42,0 0.62,0 0.73,0.45 1.14,4.05 2.83,4.36 3.45,4.36 0.41,0 0.86,-0.11 0.86,-1.19 0,-0.76 -0.26,-1.45 -0.54,-2.18 z"
           inkscape:connector-curvature="0"
           style="fill:#000000;stroke-width:0" /></g>    </g>
  </g>
</svg>
